<?xml version="1.0" standalone="no"?>
<!DOCTYPE svg PUBLIC "-//W3C//DTD SVG 20010904//EN"
 "http://www.w3.org/TR/2001/REC-SVG-20010904/DTD/svg10.dtd">
<svg version="1.0" xmlns="http://www.w3.org/2000/svg"
 width="512.000000pt" height="512.000000pt" viewBox="0 0 512.000000 512.000000"
 preserveAspectRatio="xMidYMid meet">
<metadata>
Created by potrace 1.16, written by Peter Selinger 2001-2019
</metadata>
<g transform="translate(0.000000,512.000000) scale(0.100000,-0.100000)"
fill="#000000" stroke="none">
<path d="M0 5073 l1 -48 25 30 c48 57 49 65 9 65 l-35 0 0 -47z"/>
<path d="M99 5077 c-79 -94 -116 -156 -81 -138 9 5 25 12 35 15 13 4 16 12 11
32 -6 23 -4 26 10 21 10 -4 19 -7 21 -7 3 0 9 -9 16 -21 9 -18 6 -26 -22 -55
-18 -19 -42 -34 -53 -34 -18 0 -18 -1 -2 -19 19 -21 12 -45 -18 -71 -11 -8
-16 -29 -16 -61 0 -27 2 -49 5 -49 9 0 95 64 95 71 0 4 15 18 33 30 l32 23
-20 -24 -20 -23 27 17 c15 10 29 25 31 34 4 16 5 15 12 -1 11 -25 -12 -55
-107 -138 -46 -40 -84 -81 -86 -90 -2 -10 11 -37 28 -60 83 -115 78 -324 -10
-436 -17 -21 -20 -40 -20 -112 l0 -86 19 40 c11 22 37 60 59 85 34 38 43 43
59 34 10 -6 20 -22 21 -35 l4 -23 13 23 c11 22 10 27 -14 47 l-26 22 18 68
c10 38 23 72 30 76 14 9 57 2 136 -22 l56 -16 102 41 102 42 -65 11 c-74 12
-104 33 -104 70 0 13 -9 40 -21 59 -16 25 -19 42 -14 69 8 46 30 53 63 21 37
-35 149 -94 192 -101 19 -3 65 -8 102 -11 l67 -5 56 63 c56 62 129 194 139
252 3 17 3 24 0 18 -7 -17 -24 -16 -24 0 0 15 -31 47 -46 47 -5 0 -8 -28 -6
-62 3 -51 -1 -72 -21 -108 -50 -94 -158 -142 -273 -121 -127 24 -223 91 -274
193 -24 50 -30 73 -30 129 0 80 15 99 23 30 8 -68 46 -138 104 -193 69 -64
106 -80 190 -86 64 -4 79 -1 128 22 64 32 101 76 126 149 17 49 16 53 -2 99
-23 59 -24 94 -4 102 9 3 15 18 15 40 0 38 25 70 48 61 12 -4 11 0 -3 22 -10
16 -27 38 -38 50 l-20 23 -11 -23 c-16 -31 -47 -32 -76 -2 -21 22 -31 25 -94
24 l-71 0 42 -13 c57 -18 104 -49 147 -96 35 -39 45 -60 28 -60 -5 0 -29 20
-54 44 -81 77 -204 98 -303 52 -27 -12 -56 -30 -64 -39 -7 -10 -21 -17 -30
-17 -30 1 87 99 137 114 l47 15 -73 0 -74 1 -63 -63 c-50 -50 -67 -75 -79
-117 -23 -76 -20 -176 5 -254 27 -83 21 -108 -42 -168 l-50 -47 18 -33 c9 -18
16 -36 15 -40 -1 -4 7 -10 19 -13 11 -4 28 -16 39 -27 17 -19 20 -19 26 -5 10
28 -3 47 -35 47 -37 0 -48 15 -22 29 31 17 69 13 91 -9 45 -45 7 -117 -66
-127 -48 -6 -164 28 -186 54 -11 14 -10 15 12 8 14 -4 31 -10 38 -12 15 -6 11
6 -36 102 -45 91 -44 110 5 154 61 56 117 101 124 101 3 0 0 23 -7 52 -8 29
-14 64 -14 79 0 22 -4 26 -20 22 -20 -5 -26 8 -20 47 3 20 41 72 48 66 3 -3
14 13 24 35 10 23 32 59 49 80 l31 39 -50 0 c-48 0 -51 -2 -97 -55 -48 -57
-85 -85 -85 -65 0 6 23 36 51 66 l52 54 -39 0 c-33 -1 -44 -7 -75 -43z m627
-76 c122 -74 138 -254 31 -348 -75 -66 -168 -53 -256 34 -29 30 -56 52 -58 49
-23 -23 -73 75 -73 142 0 27 7 34 70 65 38 20 77 36 87 36 10 0 38 3 63 6 47
6 90 -8 98 -34 4 -11 -5 -12 -41 -7 -72 11 -132 -19 -158 -80 l-21 -46 24 -46
c26 -52 100 -108 154 -118 42 -8 100 20 119 57 8 15 15 54 15 85 0 73 -28 133
-81 175 -57 45 -36 68 27 30z m28 -127 c11 -30 6 -105 -10 -135 -19 -37 -73
-63 -106 -50 -22 8 -21 10 19 26 23 9 49 28 58 41 15 24 15 24 -4 12 -17 -10
-24 -9 -43 8 -39 35 -49 37 -30 5 21 -37 9 -64 -30 -69 -37 -4 -88 42 -88 79
0 16 4 29 9 29 5 0 23 11 39 25 35 29 109 43 141 26 17 -10 21 -9 21 4 0 20
16 19 24 -1z m-283 -191 c13 -16 12 -17 -3 -4 -10 7 -18 15 -18 17 0 8 8 3 21
-13z m49 -69 c0 -8 -4 -12 -10 -9 -5 3 -10 10 -10 16 0 5 5 9 10 9 6 0 10 -7
10 -16z"/>
<path d="M966 5058 c91 -170 82 -380 -23 -538 -20 -30 -71 -90 -113 -132 -59
-61 -71 -78 -55 -78 11 0 44 -6 72 -13 42 -11 50 -11 46 0 -3 7 19 41 49 75
30 35 67 84 83 110 16 26 33 44 37 42 4 -3 5 2 2 10 -3 9 -2 16 3 16 5 0 9 8
10 18 0 9 4 37 7 62 13 90 27 108 62 85 19 -12 24 -12 38 4 16 17 14 19 -31
43 -69 35 -108 94 -109 166 -2 53 -32 150 -56 179 -6 7 -21 13 -33 13 -23 0
-22 -1 11 -62z"/>
<path d="M1360 5102 c0 -25 -34 -55 -57 -50 -9 2 -23 14 -30 28 l-13 25 0 -32
c0 -28 -4 -33 -24 -33 -33 0 -41 -34 -11 -50 12 -6 37 -37 55 -68 48 -82 51
-84 66 -72 10 9 5 24 -23 76 -19 36 -33 67 -31 69 1 2 27 -4 56 -13 32 -10 52
-22 53 -32 3 -40 17 43 18 103 l1 67 -30 0 c-22 0 -30 -5 -30 -18z"/>
<path d="M1552 5038 c-6 -46 -14 -92 -17 -103 -4 -11 5 0 20 25 15 25 44 68
66 96 21 28 39 54 39 57 0 4 -22 7 -49 7 l-48 0 -11 -82z"/>
<path d="M1700 5116 c0 -2 11 -28 25 -57 41 -91 50 -179 35 -342 -14 -155 -8
-213 30 -288 20 -39 92 -119 108 -119 4 0 15 14 24 31 l18 30 -36 31 c-55 48
-77 101 -81 193 -4 65 -1 87 15 117 11 21 16 40 10 46 -5 5 -13 46 -18 93 -6
46 -17 109 -25 139 -26 99 10 93 116 -19 41 -43 92 -104 114 -135 22 -31 48
-67 58 -79 l17 -22 -10 28 c-21 60 -110 182 -215 295 l-57 62 -64 0 c-35 0
-64 -2 -64 -4z"/>
<path d="M2006 4993 c162 -219 170 -226 250 -238 45 -6 78 8 106 45 24 32 16
53 -28 79 -19 11 -37 28 -41 37 -8 22 23 45 52 38 13 -3 27 1 34 10 19 22 37
20 55 -6 42 -59 -3 -189 -82 -239 -60 -38 -106 -46 -159 -27 -23 8 -45 13 -48
10 -10 -11 -5 -69 11 -116 22 -63 15 -152 -14 -193 -12 -17 -38 -38 -58 -48
-49 -23 -32 -38 49 -43 69 -4 59 -13 97 86 7 17 15 32 19 32 16 -1 52 -41 46
-51 -4 -6 10 0 31 14 22 14 64 30 94 36 30 6 76 18 101 27 38 12 46 19 42 34
-5 21 20 48 82 90 73 50 103 81 130 138 l28 57 18 -40 c10 -22 19 -51 19 -64
0 -24 0 -24 20 -6 20 18 20 19 1 39 -29 33 -41 62 -41 100 0 37 -12 46 -90 71
-22 7 -22 5 -16 -30 6 -29 2 -48 -19 -92 -27 -55 -71 -95 -147 -134 -33 -17
-38 -24 -38 -53 0 -54 -38 -78 -114 -74 -41 2 -60 7 -59 15 2 7 -3 10 -10 7
-7 -2 -13 -17 -12 -32 0 -21 -5 -28 -23 -30 -13 -2 -24 3 -28 12 -3 9 -10 14
-15 11 -11 -7 -31 69 -27 103 3 26 5 27 61 24 35 -2 64 2 73 9 8 6 14 8 14 4
0 -3 12 3 26 14 15 12 36 21 48 21 16 0 17 3 7 9 -10 6 -10 10 -2 16 13 8 57
98 63 130 3 18 11 20 72 18 38 -2 75 -8 82 -14 12 -9 14 -4 14 33 0 39 -5 49
-39 80 -41 37 -98 120 -120 176 -13 32 -14 32 -79 32 l-66 0 45 -28 c24 -16
70 -58 101 -94 63 -72 77 -111 42 -116 -15 -2 -39 18 -89 73 -75 84 -107 105
-161 105 -46 0 -97 -49 -113 -108 -14 -51 -29 -61 -52 -34 -26 32 -29 27 -12
-18 9 -22 22 -40 30 -40 15 0 40 -46 30 -56 -12 -12 -37 5 -49 33 -7 15 -27
49 -45 74 -48 68 -42 98 20 99 14 1 30 13 42 33 11 17 35 42 54 54 l34 23 -67
0 c-53 0 -74 -4 -93 -20 -32 -25 -70 -25 -108 0 -16 11 -40 20 -52 20 -19 0
-9 -18 73 -127z m294 -109 c16 -18 17 -71 2 -86 -33 -33 -110 11 -96 56 13 43
69 62 94 30z"/>
<path d="M2566 5088 c20 -39 89 -134 104 -143 5 -3 15 6 20 20 12 32 12 38 1
31 -14 -9 -74 83 -68 105 4 16 0 19 -34 19 l-40 0 17 -32z"/>
<path d="M2695 5110 c3 -5 8 -10 11 -10 2 0 4 5 4 10 0 6 -5 10 -11 10 -5 0
-7 -4 -4 -10z"/>
<path d="M2778 5052 c3 -47 -1 -80 -12 -107 -21 -50 -8 -65 60 -72 34 -3 45
-2 35 5 -8 6 -14 25 -13 47 2 44 8 55 32 55 21 0 80 -31 80 -43 0 -4 9 -2 20
5 26 17 70 0 89 -34 14 -25 14 -29 -5 -55 -26 -35 -75 -42 -102 -15 -40 40
-50 35 -51 -23 0 -48 3 -57 30 -79 l29 -25 83 54 c128 83 161 109 175 135 18
34 10 156 -11 177 -14 14 -19 13 -49 -12 -47 -40 -89 -55 -155 -55 -70 0 -133
28 -169 76 -16 20 -35 34 -48 34 -20 0 -21 -4 -18 -68z m382 -138 c11 -12 10
-18 -4 -32 -20 -20 -49 -6 -54 27 -3 17 2 21 21 21 14 0 30 -7 37 -16z"/>
<path d="M2960 5105 c31 -18 76 -18 115 0 28 13 25 13 -55 14 -79 0 -83 -1
-60 -14z"/>
<path d="M3250 5113 c0 -5 7 -17 15 -27 8 -11 15 -34 15 -52 0 -18 5 -55 11
-82 11 -45 10 -54 -10 -96 -27 -55 -58 -79 -132 -100 -53 -16 -149 -68 -149
-82 0 -3 9 -17 20 -31 26 -34 42 -93 34 -132 -7 -32 -40 -74 -81 -101 -16 -11
-26 -31 -33 -70 -13 -69 -61 -169 -104 -215 -74 -78 -145 -11 -80 76 40 54 77
131 76 162 0 15 4 25 9 22 5 -4 9 -1 9 4 0 6 -4 11 -10 11 -5 0 -10 4 -10 10
0 5 6 7 14 4 9 -3 17 10 26 43 9 33 26 59 53 84 30 28 38 41 32 58 -3 11 -13
21 -21 21 -8 0 -51 -28 -97 -62 -45 -35 -93 -70 -107 -79 l-25 -16 33 -37 c48
-55 41 -112 -17 -131 -19 -6 -20 -18 -23 -205 -3 -193 -4 -199 -27 -224 -24
-26 -101 -49 -130 -39 -33 12 -51 37 -51 69 0 48 13 76 64 133 69 78 58 103
-26 60 -22 -11 -81 -59 -131 -106 -120 -114 -171 -138 -292 -138 -90 0 -91 0
-193 54 l-103 54 -37 -17 c-20 -10 -65 -36 -100 -58 -53 -34 -88 -47 -218 -78
-85 -21 -157 -40 -160 -43 -3 -3 0 -15 6 -27 29 -55 -19 -111 -60 -70 -21 21
-18 42 8 72 13 16 12 17 -14 9 -311 -93 -519 -251 -574 -438 l-13 -42 74 -83
c102 -114 177 -188 226 -221 42 -29 138 -64 128 -46 -4 5 3 26 15 46 25 43 22
75 -15 155 -26 57 -24 74 7 57 18 -10 58 -9 98 2 11 3 15 -4 15 -23 -1 -16 3
-28 7 -28 9 0 9 87 0 149 -5 30 -14 49 -30 59 -22 15 -23 14 -17 -10 9 -35 -7
-62 -45 -78 -28 -11 -34 -11 -58 7 -44 33 -56 119 -22 153 25 25 95 27 122 3
27 -24 33 -9 11 29 -41 72 -137 86 -195 28 -49 -50 -38 -144 38 -313 34 -75
36 -83 23 -106 -8 -15 -25 -27 -37 -29 -12 -2 -22 -8 -22 -13 0 -5 -8 -9 -18
-9 -21 0 -45 25 -136 138 -78 99 -83 120 -44 198 20 40 128 159 145 159 4 0
23 11 41 24 40 28 98 37 145 22 101 -34 187 -221 175 -382 -4 -61 -4 -62 36
-104 93 -97 157 -240 164 -366 5 -107 -13 -171 -64 -220 -33 -32 -39 -34 -102
-34 -143 0 -273 101 -333 260 -27 70 -36 84 -50 80 -21 -7 -59 30 -59 57 0 10
-4 18 -9 18 -18 0 -140 195 -128 206 2 2 44 -33 93 -77 67 -61 56 -49 -42 49
-133 134 -164 156 -148 105 11 -35 12 -188 1 -229 -8 -31 -7 -32 30 -39 56
-10 130 -54 169 -99 31 -36 44 -67 73 -174 13 -48 60 -106 104 -128 16 -9 26
-11 22 -5 -8 14 -17 61 -11 61 3 0 34 -20 70 -45 42 -28 72 -42 82 -38 13 5
15 2 9 -18 -14 -46 -25 -52 -91 -46 -77 6 -171 53 -220 111 -20 23 -54 76 -77
119 -53 100 -91 145 -141 168 -56 25 -73 24 -135 -14 -29 -17 -69 -42 -89 -54
l-36 -21 40 -7 c49 -8 130 -33 169 -52 l30 -15 -29 28 c-28 26 -28 28 -10 41
12 10 34 13 62 10 54 -6 89 -37 132 -119 20 -38 68 -96 128 -155 88 -89 94
-97 82 -117 -9 -14 -2 -11 23 11 26 23 50 33 84 37 124 15 295 50 367 74 92
31 96 38 98 157 1 54 -6 91 -31 164 -38 111 -51 137 -125 255 -54 85 -67 128
-46 141 5 3 41 -23 79 -59 40 -37 98 -80 139 -100 39 -20 82 -48 95 -62 l25
-26 7 21 c15 49 -10 74 -137 141 -67 35 -138 78 -159 97 -48 44 -81 121 -87
208 -3 40 -8 62 -12 51 -5 -16 -11 -13 -41 25 -27 34 -34 53 -35 89 0 25 -4
53 -8 62 -7 16 -2 18 55 15 l63 -2 10 35 c16 51 27 64 71 83 44 19 135 38 135
28 0 -3 4 0 9 8 21 33 122 -55 107 -95 -3 -7 -1 -14 4 -14 5 0 53 -32 107 -71
88 -64 162 -109 178 -109 4 0 -22 19 -57 43 -35 24 -70 56 -78 71 -14 25 -13
28 4 42 28 20 54 17 88 -11 59 -49 150 -52 193 -5 15 16 17 32 13 90 -6 78 -1
83 53 55 31 -17 89 -23 107 -11 6 3 13 19 17 35 3 16 13 35 21 42 12 10 20 5
47 -27 63 -75 114 -120 173 -153 70 -40 110 -42 208 -12 78 24 112 16 102 -22
-5 -20 -4 -20 14 3 26 33 25 36 -15 71 -22 19 -35 40 -35 55 0 32 12 30 28 -5
20 -45 105 -69 88 -24 -3 8 -2 12 3 9 5 -3 14 8 21 24 10 25 10 34 -4 55 -24
37 -57 32 -83 -13 -19 -32 -22 -35 -29 -18 -5 12 0 32 12 55 27 50 71 55 108
11 14 -17 26 -43 26 -57 0 -26 0 -26 20 -8 11 10 16 21 12 24 -15 10 -23 48
-16 75 10 42 37 50 89 27 25 -11 45 -25 45 -31 0 -11 216 94 280 136 20 13 47
39 60 57 12 17 17 26 9 20 -7 -7 -15 -13 -18 -13 -4 0 -6 33 -7 74 -1 79 -19
138 -59 191 -40 52 -35 58 48 53 73 -4 141 -28 164 -58 21 -28 27 15 6 50 -36
61 -122 90 -270 90 -107 0 -145 28 -88 66 22 14 26 14 47 0 32 -23 57 -21 51
4 -6 24 22 70 43 70 24 0 161 -68 167 -82 3 -7 6 1 6 19 1 41 14 48 51 30 27
-14 32 -14 55 5 35 28 23 38 -44 38 -118 0 -211 31 -219 74 -2 9 3 16 12 16 8
0 28 16 43 35 29 36 51 43 71 23 9 -9 12 -5 12 18 0 29 -36 189 -46 205 -3 5
-34 -38 -69 -96 -35 -58 -92 -146 -127 -195 -107 -154 -120 -177 -120 -214 0
-45 8 -56 40 -56 97 0 185 -166 152 -285 -44 -158 -304 -259 -351 -137 -13 33
3 94 32 123 21 21 20 35 -3 26 -8 -2 -49 -63 -93 -133 -92 -148 -195 -263
-270 -301 -69 -36 -145 -37 -199 -3 -91 56 -146 126 -146 188 0 47 11 45 35
-6 23 -49 80 -107 122 -123 43 -16 98 -10 153 19 50 25 55 31 67 77 7 28 13
83 13 124 0 66 2 72 18 66 9 -4 36 -9 59 -11 23 -1 46 -5 51 -8 9 -5 81 114
87 143 2 10 13 49 24 87 22 68 40 98 73 115 14 8 17 6 13 -8 -3 -10 2 -2 11
17 28 60 43 127 31 139 -6 6 -8 11 -4 11 3 0 -1 19 -9 43 -8 23 -12 52 -10 63
7 27 67 56 108 52 29 -3 36 3 90 77 71 99 174 271 193 325 13 38 13 40 -5 40
-14 0 -20 -8 -22 -32 -2 -22 -10 -36 -25 -42 -13 -6 -23 -22 -26 -43 -7 -38
-43 -103 -59 -103 -6 0 -7 7 -3 18 35 82 40 112 29 171 -6 31 -7 31 -70 31
-35 0 -64 -3 -64 -7z m120 -130 c0 -22 -2 -25 -10 -13 -13 20 -13 40 0 40 6 0
10 -12 10 -27z m-1532 -1149 c32 -37 31 -103 -4 -138 -27 -26 -44 -31 -96 -27
-17 1 -28 -3 -28 -10 0 -7 -11 10 -25 37 -40 78 -32 111 35 153 43 27 86 22
118 -15z m407 -24 c0 -20 -5 -25 -25 -25 -20 0 -26 6 -28 28 -3 26 -1 28 25
25 22 -2 28 -8 28 -28z m-302 3 c-2 -9 4 -10 22 -3 50 19 115 -34 115 -92 0
-41 -48 -88 -90 -88 -65 0 -111 82 -80 141 8 15 7 19 -5 19 -8 0 -15 9 -15 21
0 16 5 20 28 17 15 -2 26 -8 25 -15z m586 -33 c6 0 11 -4 11 -10 0 -5 -8 -7
-17 -3 -29 10 -43 24 -36 36 4 6 11 4 18 -6 7 -10 17 -17 24 -17z m-1321 -210
c2 -32 -37 -57 -57 -37 -13 13 -13 13 -86 16 l-50 3 50 24 c34 16 65 24 96 22
41 -1 45 -4 47 -28z m-419 -702 c22 -37 14 -56 -17 -39 -22 12 -37 45 -27 61
11 17 22 11 44 -22z"/>
<path d="M1723 3820 c-27 -16 -33 -26 -33 -53 0 -38 34 -77 66 -77 16 0 17 2
4 11 -12 8 -12 10 5 8 37 -3 44 1 61 32 20 39 12 72 -21 87 -35 16 -45 15 -82
-8z"/>
<path d="M1966 3692 c-11 -18 12 -35 38 -28 36 9 34 36 -3 36 -17 0 -32 -4
-35 -8z"/>
<path d="M3605 5106 c-17 -12 -17 -16 -5 -31 7 -9 31 -25 52 -36 30 -15 43
-17 59 -9 11 7 27 9 35 6 23 -9 72 21 89 54 l16 30 -114 0 c-81 0 -119 -4
-132 -14z"/>
<path d="M3899 5093 c-6 -16 -21 -42 -35 -60 l-24 -32 31 -22 c58 -41 74 -115
38 -179 -20 -35 -20 -42 -9 -109 6 -39 16 -74 21 -77 6 -3 43 -16 84 -29 l73
-22 -18 53 c-20 56 -40 180 -40 241 0 20 -9 46 -20 60 -24 31 -27 93 -5 93 13
0 21 -25 16 -52 0 -5 3 -8 9 -8 6 0 10 30 10 69 0 38 3 76 6 85 5 14 -4 16
-60 16 -63 0 -67 -1 -77 -27z"/>
<path d="M4064 5033 c-4 -49 -7 -137 -7 -198 0 -92 3 -116 20 -150 47 -89 49
-86 39 60 -7 110 -5 157 8 243 21 139 22 132 -18 132 l-34 0 -8 -87z m23 -280
c-3 -10 -5 -4 -5 12 0 17 2 24 5 18 2 -7 2 -21 0 -30z"/>
<path d="M4240 5097 c0 -12 -11 -76 -25 -142 -16 -78 -25 -153 -25 -213 0 -97
18 -232 30 -232 4 0 18 28 31 63 22 56 24 75 20 187 -6 234 -6 315 2 338 7 18
5 22 -12 22 -15 0 -21 -6 -21 -23z"/>
<path d="M4497 5081 c140 -90 189 -220 152 -405 -7 -31 -9 -59 -6 -62 3 -3 28
4 56 16 45 20 50 25 45 46 -12 48 46 72 92 39 19 -13 25 -12 66 14 49 31 78
66 78 92 0 34 -104 131 -231 215 l-127 84 -93 0 -92 0 60 -39z m179 -57 c49
-31 122 -78 162 -105 41 -27 78 -47 83 -43 5 3 14 -7 19 -22 6 -15 9 -27 8
-28 -84 -45 -118 -58 -162 -63 l-53 -5 -6 47 c-10 70 -45 132 -109 195 -57 54
-71 80 -45 80 7 0 53 -25 103 -56z"/>
<path d="M4796 5081 c95 -62 198 -158 246 -228 l15 -23 24 27 c13 15 16 21 7
14 -10 -7 -18 -9 -18 -4 0 5 11 15 25 21 14 6 25 18 25 26 0 20 -38 30 -55 16
-23 -19 -56 -5 -117 53 -65 60 -79 96 -28 71 35 -18 58 -9 90 36 l21 30 -40 0
c-28 0 -41 -4 -41 -14 0 -23 -29 -27 -40 -6 -9 17 -21 20 -92 20 l-81 0 59
-39z"/>
<path d="M5090 5116 c0 -2 7 -6 15 -10 8 -3 15 -1 15 4 0 6 -7 10 -15 10 -8 0
-15 -2 -15 -4z"/>
<path d="M1624 5012 c-70 -104 -76 -119 -115 -257 l-34 -120 -3 114 -3 113
-28 -40 c-36 -49 -118 -92 -177 -92 -41 0 -43 -1 -82 -67 -79 -130 -102 -207
-82 -267 18 -55 32 -61 82 -35 37 19 40 23 23 29 -32 12 -50 39 -37 52 7 7 12
23 12 37 0 36 59 128 89 140 29 12 72 11 65 -1 -3 -5 -9 -6 -13 -4 -4 3 -13 1
-21 -5 -13 -7 -12 -9 2 -9 9 0 23 -3 31 -6 11 -4 24 18 52 85 39 94 61 125 69
100 3 -8 6 -66 8 -131 3 -113 4 -117 35 -160 18 -23 52 -70 74 -103 41 -59 42
-60 35 -23 -4 20 -18 57 -32 82 -40 72 -34 170 15 248 15 24 31 56 35 71 3 15
10 26 14 23 4 -2 7 11 8 29 0 36 40 94 64 94 10 -1 11 -2 3 -6 -7 -2 -13 -9
-13 -14 0 -6 4 -8 9 -4 6 3 12 -9 14 -27 3 -18 3 3 1 48 -2 69 -23 152 -43
176 -3 4 -29 -28 -57 -70z"/>
<path d="M4326 5054 c-4 -14 1 -63 11 -108 11 -51 17 -127 17 -206 1 -113 -2
-131 -25 -187 l-26 -61 59 21 58 21 0 69 c0 67 1 69 23 62 12 -4 46 -10 75
-12 l53 -5 -6 -30 c-4 -18 -3 -28 2 -25 12 7 39 234 30 244 -4 3 -7 -3 -7 -15
l0 -22 -32 20 c-44 26 -48 25 -35 -9 22 -59 -47 -111 -102 -78 -38 23 -49 62
-28 99 10 17 17 51 17 79 0 60 14 69 70 44 39 -18 78 -53 98 -90 9 -15 11 -16
12 -4 1 47 -100 154 -187 198 -55 27 -69 27 -77 -5z"/>
<path d="M3547 5036 c-15 -31 -14 -35 14 -92 17 -33 36 -97 44 -143 8 -45 17
-87 21 -92 3 -5 24 -19 46 -30 l41 -21 -7 54 c-10 78 -31 132 -53 136 -20 4
-43 29 -43 48 0 7 11 25 24 41 l24 28 -48 52 -47 51 -16 -32z"/>
<path d="M1502 5025 c0 -16 2 -22 5 -12 2 9 2 23 0 30 -3 6 -5 -1 -5 -18z"/>
<path d="M1491 4964 c0 -11 3 -14 6 -6 3 7 2 16 -1 19 -3 4 -6 -2 -5 -13z"/>
<path d="M3758 4939 c-10 -5 -15 -16 -11 -25 3 -8 0 -26 -7 -38 -6 -13 -10
-32 -8 -42 5 -26 65 -64 101 -64 26 0 28 -2 16 -16 -9 -12 -27 -15 -67 -12
l-54 3 6 -35 c3 -19 6 -40 6 -46 0 -6 15 -14 33 -17 17 -3 47 -9 65 -13 l32
-6 0 87 c0 68 -4 93 -16 107 -16 16 -16 18 0 24 25 10 19 42 -13 75 -31 30
-54 35 -83 18z"/>
<path d="M1117 4929 c-9 -5 -22 -7 -27 -4 -15 9 -12 -42 5 -74 16 -33 71 -62
112 -60 26 2 25 2 -7 8 -38 7 -48 35 -19 54 21 13 74 -13 73 -36 -1 -13 2 -14
17 -6 24 12 24 16 -1 57 -36 58 -108 87 -153 61z"/>
<path d="M3663 4933 c-16 -6 -17 -29 -2 -39 12 -7 29 12 29 34 0 13 -6 14 -27
5z"/>
<path d="M2360 4911 c0 -13 7 -29 15 -37 13 -14 15 -13 15 9 0 14 -7 30 -15
37 -13 10 -15 9 -15 -9z"/>
<path d="M2981 4906 c-16 -19 -11 -46 12 -60 25 -16 52 4 52 40 0 24 -5 30
-26 32 -14 2 -31 -4 -38 -12z"/>
<path d="M4427 4822 c-32 -35 -14 -72 34 -72 41 0 56 60 20 80 -27 14 -35 13
-54 -8z"/>
<path d="M5093 4808 c-12 -13 -28 -41 -35 -63 -10 -29 -23 -45 -53 -62 -66
-37 -350 -152 -502 -203 -130 -44 -210 -85 -242 -124 -11 -13 -10 -23 2 -58
39 -107 28 -208 -26 -254 -27 -22 -38 -26 -82 -22 l-50 4 46 -43 c41 -38 64
-76 83 -137 5 -15 9 -16 22 -5 11 9 13 22 9 51 -6 36 -4 42 39 88 33 35 46 57
46 78 0 63 13 122 26 122 8 0 31 -16 53 -35 37 -33 39 -34 55 -16 16 17 14 20
-40 62 -60 46 -128 124 -139 160 -7 22 10 49 31 49 8 0 46 -34 86 -76 91 -95
101 -101 115 -65 9 26 8 27 -12 23 -24 -4 -55 29 -55 59 0 28 99 54 101 27 0
-7 7 1 14 17 17 36 19 81 5 90 -5 3 -10 10 -10 14 0 12 53 21 64 11 18 -17 8
-108 -17 -164 -14 -31 -24 -56 -22 -56 2 0 25 28 51 63 111 147 206 223 334
267 36 13 80 37 98 55 32 30 33 34 30 99 l-3 68 -22 -24z"/>
<path d="M1978 4789 c21 -22 14 -66 -13 -87 l-26 -20 26 -38 c27 -40 30 -51
15 -74 -6 -10 -4 -20 5 -30 7 -8 25 -35 39 -60 l26 -45 0 146 c0 133 -2 149
-21 173 -11 14 -30 31 -42 37 -18 9 -20 9 -9 -2z"/>
<path d="M1710 4774 c0 -12 -7 -15 -23 -12 l-24 5 0 -111 c0 -64 -7 -143 -16
-186 -31 -148 -31 -164 1 -202 39 -45 110 -169 130 -228 l17 -48 33 17 32 17
-41 54 c-82 110 -135 246 -114 297 5 14 14 3 41 -50 37 -76 97 -145 131 -152
13 -2 37 -20 54 -39 l31 -36 25 20 c14 11 29 17 34 14 5 -3 9 1 9 9 0 31 29
39 145 40 63 1 116 0 116 -3 6 -22 5 -50 -2 -50 -4 0 -20 -12 -33 -27 l-26
-27 -64 17 c-90 24 -97 23 -90 -11 10 -50 -54 -85 -86 -47 -17 21 -24 19 -81
-20 -40 -27 -46 -35 -29 -35 12 0 52 -13 90 -30 61 -27 157 -44 122 -21 -11 6
-4 18 26 51 39 42 41 43 100 41 52 -1 67 3 109 29 28 18 56 29 68 26 22 -5 58
16 61 37 1 6 5 23 9 37 5 20 0 33 -19 53 -32 35 -44 34 -38 -2 3 -25 -1 -30
-35 -44 -34 -14 -40 -14 -55 1 -18 15 -24 42 -10 42 4 0 25 16 47 36 64 57 80
65 129 66 l46 1 0 41 c0 30 3 37 10 26 5 -8 10 -26 10 -40 0 -14 13 -41 29
-60 44 -54 61 -95 61 -145 0 -55 -14 -85 -75 -156 -63 -74 -61 -119 6 -119 11
0 18 4 15 9 -3 4 12 14 34 21 23 8 43 22 47 34 5 12 7 100 6 196 -2 147 -5
177 -19 187 -10 7 -15 23 -13 41 2 16 -3 43 -11 58 -8 16 -15 30 -16 32 0 1
-16 -4 -35 -12 -19 -8 -74 -22 -123 -32 -79 -15 -96 -23 -159 -70 -82 -63
-115 -71 -209 -54 -65 11 -71 11 -91 -8 -36 -33 -75 -44 -113 -32 -45 15 -118
99 -146 168 -20 52 -23 73 -23 230 0 94 -1 172 -2 172 -2 0 -3 -7 -3 -16z"/>
<path d="M260 4685 c0 -5 5 -17 10 -25 5 -8 10 -10 10 -5 0 6 -5 17 -10 25 -5
8 -10 11 -10 5z"/>
<path d="M3561 4664 c0 -11 3 -14 6 -6 3 7 2 16 -1 19 -3 4 -6 -2 -5 -13z"/>
<path d="M1854 4605 c5 -102 42 -164 126 -210 11 -6 10 -3 -2 12 -10 11 -18
28 -18 37 0 18 10 18 54 1 13 -6 7 6 -18 39 -20 26 -36 51 -36 56 0 5 -16 14
-35 20 -36 12 -53 33 -66 85 -6 21 -7 8 -5 -40z"/>
<path d="M281 4624 c0 -11 3 -14 6 -6 3 7 2 16 -1 19 -3 4 -6 -2 -5 -13z"/>
<path d="M254 4578 l-19 -23 23 19 c21 18 27 26 19 26 -2 0 -12 -10 -23 -22z"/>
<path d="M2403 4580 c-18 -11 -33 -24 -33 -29 0 -5 -3 -17 -7 -27 -6 -15 -1
-16 41 -12 62 7 84 28 68 63 -14 30 -27 31 -69 5z"/>
<path d="M4950 4537 c-51 -24 -112 -83 -252 -242 -82 -93 -94 -112 -83 -124
12 -12 26 -2 97 62 46 42 117 113 158 159 41 46 92 102 114 125 43 48 34 53
-34 20z"/>
<path d="M5092 4537 l-22 -23 25 -22 25 -22 0 45 c0 25 -1 45 -3 45 -2 0 -13
-10 -25 -23z"/>
<path d="M3806 4530 c-27 -5 -76 -19 -108 -31 -54 -20 -58 -24 -58 -53 0 -17
13 -51 28 -76 l27 -45 52 3 c37 2 67 -3 99 -17 61 -27 79 -26 32 1 -44 26 -80
100 -59 121 20 19 174 14 206 -7 15 -10 28 -16 30 -14 2 2 8 23 13 46 l10 42
-52 15 c-69 19 -160 26 -220 15z m-50 -84 c19 -30 15 -65 -9 -80 -15 -9 -21
-7 -33 8 -17 24 -19 82 -1 89 22 9 26 7 43 -17z"/>
<path d="M1260 4518 c0 -7 7 -21 15 -31 13 -18 14 -18 24 2 9 16 8 22 -8 31
-25 13 -31 13 -31 -2z"/>
<path d="M4109 4472 c32 -57 -115 -251 -173 -229 -7 3 0 -19 16 -49 16 -30 31
-54 32 -54 2 0 30 35 64 78 33 42 85 103 115 135 l55 58 -40 33 c-45 39 -84
54 -69 28z"/>
<path d="M1379 4458 c-6 -13 -29 -46 -51 -75 -38 -50 -39 -52 -23 -76 16 -25
84 -77 99 -77 5 0 3 7 -4 15 -14 17 -7 55 17 91 24 37 59 31 104 -18 44 -48
49 -42 18 17 -25 48 -84 111 -121 131 -25 13 -28 13 -39 -8z"/>
<path d="M1042 4430 c0 -19 2 -27 5 -17 2 9 2 25 0 35 -3 9 -5 1 -5 -18z"/>
<path d="M4855 4297 c-93 -89 -170 -165 -170 -170 0 -12 208 -147 217 -141 5
3 -9 18 -31 34 -43 32 -71 67 -71 90 0 31 224 230 258 230 10 0 25 -12 34 -27
16 -25 17 -26 18 -7 0 45 -55 155 -78 154 -4 -1 -83 -74 -177 -163z"/>
<path d="M185 4420 c10 -11 20 -20 23 -20 3 0 -3 9 -13 20 -10 11 -20 20 -23
20 -3 0 3 -9 13 -20z"/>
<path d="M1050 4367 c0 -10 11 -40 25 -68 14 -27 24 -53 21 -57 -3 -4 10 -6
28 -4 28 3 37 -1 55 -26 44 -63 8 -142 -59 -128 l-32 6 23 -38 c34 -56 141
-227 144 -230 5 -5 85 21 85 28 0 3 -14 10 -32 15 -19 6 -37 22 -47 40 -9 17
-24 41 -34 55 -25 36 -21 60 18 103 40 42 63 46 90 17 10 -11 26 -20 36 -20
25 0 69 -57 69 -89 0 -16 -9 -39 -19 -53 l-19 -24 41 5 c38 6 42 9 50 44 5 20
15 37 23 37 27 0 94 -33 94 -46 0 -10 15 -7 55 13 30 15 52 30 47 34 -4 3 -45
18 -92 32 -211 65 -517 252 -556 341 -8 20 -13 24 -14 13z"/>
<path d="M4009 4343 c-13 -16 -12 -17 4 -4 9 7 17 15 17 17 0 8 -8 3 -21 -13z"/>
<path d="M253 4323 c9 -2 23 -2 30 0 6 3 -1 5 -18 5 -16 0 -22 -2 -12 -5z"/>
<path d="M3 4275 c0 -22 2 -30 4 -17 2 12 2 30 0 40 -3 9 -5 -1 -4 -23z"/>
<path d="M638 4303 c7 -3 16 -2 19 1 4 3 -2 6 -13 5 -11 0 -14 -3 -6 -6z"/>
<path d="M1282 4294 c2 -9 23 -33 48 -53 l45 -36 -38 44 c-20 25 -37 48 -37
53 0 4 -5 8 -11 8 -6 0 -9 -7 -7 -16z"/>
<path d="M4122 4224 c-45 -49 -82 -92 -82 -96 0 -12 35 -27 80 -34 33 -5 41
-4 35 5 -9 15 12 58 33 66 8 3 21 -3 28 -12 12 -16 13 -11 13 37 0 30 -6 70
-13 89 l-12 34 -82 -89z"/>
<path d="M3211 4274 c-17 -14 -31 -33 -31 -42 0 -10 -16 -50 -35 -90 -20 -40
-38 -87 -42 -104 l-6 -31 49 29 c27 15 51 32 52 36 2 5 9 5 14 2 7 -4 8 -2 4
4 -7 12 31 79 58 102 15 12 19 12 27 -1 6 -9 9 0 9 31 0 51 -22 90 -50 90 -10
0 -32 -12 -49 -26z"/>
<path d="M911 4276 c10 -9 69 -36 69 -32 0 6 -55 36 -66 36 -4 0 -5 -2 -3 -4z"/>
<path d="M3720 4261 c-11 -8 -5 -20 36 -63 27 -29 60 -71 74 -93 13 -22 25
-42 26 -44 7 -9 34 23 34 41 0 27 -44 109 -72 135 -28 26 -76 38 -98 24z"/>
<path d="M686 4229 c-98 -33 -289 -127 -324 -159 -18 -17 -20 -24 -10 -46 8
-17 17 -23 27 -18 60 24 74 26 110 16 51 -16 92 -61 97 -108 6 -50 -12 -84
-56 -107 -98 -51 -229 44 -230 166 0 66 -47 39 -71 -40 -15 -52 -2 -106 42
-170 16 -23 29 -53 29 -67 0 -28 -24 -56 -48 -56 -9 0 19 -24 63 -52 44 -29
115 -88 158 -131 54 -56 74 -71 67 -52 -5 14 -10 39 -10 54 0 24 -3 28 -23 24
-17 -3 -40 9 -86 48 -59 51 -62 55 -56 89 4 25 -3 61 -24 125 -16 49 -28 92
-26 94 2 2 23 -16 47 -39 56 -55 86 -69 163 -79 l64 -7 26 68 c40 109 34 151
-27 188 -45 28 -73 63 -63 80 5 9 129 70 142 70 2 0 1 -6 -3 -12 -4 -7 6 -1
22 13 44 40 67 49 126 49 57 0 132 -29 192 -75 18 -14 35 -25 38 -25 2 0 5 22
5 49 1 48 0 48 -52 80 -62 38 -133 61 -184 61 -20 0 -76 -14 -125 -31z"/>
<path d="M1532 4226 c-27 -29 -70 -40 -114 -30 -29 6 -61 8 -85 5 -15 -2 60
-43 131 -70 100 -40 218 -72 209 -58 -4 7 -29 45 -55 86 -26 40 -48 77 -48 82
0 15 -14 9 -38 -15z"/>
<path d="M1428 4223 c7 -3 16 -2 19 1 4 3 -2 6 -13 5 -11 0 -14 -3 -6 -6z"/>
<path d="M2531 4213 c7 -12 15 -20 18 -17 3 2 -3 12 -13 22 -17 16 -18 16 -5
-5z"/>
<path d="M1034 4201 c20 -22 26 -25 26 -13 0 4 -10 13 -22 21 -23 14 -23 14
-4 -8z"/>
<path d="M3666 4158 c-7 -13 -29 -54 -47 -93 -57 -117 -118 -169 -311 -263
-119 -58 -180 -95 -218 -130 -53 -48 -60 -72 -20 -72 11 0 41 -20 67 -45 l47
-45 21 21 c11 12 15 19 9 16 -17 -10 -46 28 -42 54 2 17 22 35 67 61 36 21 67
36 69 33 2 -2 15 0 28 5 28 11 30 4 7 -24 -10 -12 -2 -7 17 10 40 36 91 64
117 64 14 0 15 2 4 9 -11 7 -3 16 30 36 58 37 143 128 179 192 16 28 34 54 40
58 17 10 51 -5 60 -28 8 -20 9 -20 9 6 1 38 -31 99 -69 131 -38 32 -46 32 -64
4z"/>
<path d="M1100 4155 c-17 -21 -5 -45 23 -45 27 0 47 17 47 40 0 20 -54 24 -70
5z"/>
<path d="M220 4156 c0 -2 8 -10 18 -17 15 -13 16 -12 3 4 -13 16 -21 21 -21
13z"/>
<path d="M765 4116 c-70 -31 -89 -83 -73 -195 12 -78 11 -79 -26 -192 -29 -86
-40 -136 -43 -204 -3 -49 -3 -88 0 -85 28 28 103 138 100 147 -3 7 5 47 17 89
22 78 26 125 19 245 -4 69 10 105 37 95 8 -3 14 6 16 27 3 27 8 32 38 39 42 9
70 2 70 -17 0 -10 -12 -13 -42 -12 -43 2 -43 2 -43 -33 1 -20 -6 -40 -15 -47
-13 -11 -11 -12 10 -13 15 0 31 -5 38 -12 9 -9 18 -8 39 2 71 36 91 30 189
-51 56 -46 65 -58 61 -81 -4 -30 0 -33 22 -19 18 12 13 23 -43 98 -124 164
-284 259 -371 219z"/>
<path d="M4495 4070 c-21 -28 -35 -53 -33 -56 3 -2 19 1 37 7 50 17 96 6 214
-51 148 -72 156 -53 15 33 -101 61 -113 66 -128 52 -18 -16 -70 -21 -70 -6 0
5 11 19 26 30 24 19 25 20 5 30 -27 15 -25 17 -66 -39z"/>
<path d="M1880 4106 c0 -20 25 -54 36 -49 20 8 17 19 -11 37 -14 9 -25 14 -25
12z"/>
<path d="M5040 4002 c-60 -58 -72 -75 -60 -82 8 -5 42 -27 75 -49 48 -32 61
-37 64 -24 1 9 -4 20 -13 25 -20 11 -20 36 -1 59 12 12 15 34 13 80 l-3 64
-75 -73z"/>
<path d="M3923 4021 c-35 -22 -152 -169 -206 -259 -58 -97 -63 -120 -44 -204
19 -82 14 -124 -23 -183 -28 -45 -74 -80 -131 -100 -55 -20 -93 -13 -141 25
-20 17 -41 30 -46 30 -6 0 -19 -16 -30 -35 -13 -21 -39 -43 -69 -57 -51 -24
-66 -55 -43 -84 10 -11 9 -14 -2 -14 -8 0 -19 5 -26 12 -9 9 -9 4 -2 -22 7
-25 6 -36 -3 -42 -6 -4 -7 -8 -2 -8 15 0 29 12 48 43 26 41 75 67 127 67 36 1
41 3 27 11 -9 6 -15 14 -12 20 10 15 48 10 90 -11 48 -24 89 -25 152 -4 26 9
54 17 61 18 7 1 33 36 58 77 25 41 58 87 72 104 20 21 21 24 5 11 l-23 -19 2
42 c2 49 19 62 49 35 19 -17 21 -17 57 20 33 34 35 37 12 30 -74 -24 -122 8
-119 80 3 48 22 91 58 128 29 31 49 35 58 13 15 -40 163 -68 183 -35 4 7 12
10 17 7 6 -4 23 8 39 26 16 18 19 23 7 13 -23 -19 -23 -19 -38 19 -19 45 -16
109 5 113 8 1 28 -9 44 -23 71 -61 31 21 -51 106 -74 77 -101 85 -160 50z m72
-66 c17 -16 25 -35 25 -59 0 -43 -17 -55 -36 -27 -15 21 -54 29 -54 11 0 -5
-12 -17 -26 -26 -24 -16 -26 -16 -47 5 l-22 21 52 50 c29 28 59 50 68 50 9 0
27 -11 40 -25z m-61 -175 c13 0 40 7 61 16 24 10 41 12 47 6 6 -6 -11 -18 -49
-32 -51 -19 -61 -20 -83 -8 -14 8 -26 25 -28 38 l-3 25 16 -22 c9 -13 27 -23
39 -23z"/>
<path d="M1298 4013 c-34 -40 -29 -91 12 -113 26 -14 75 3 90 31 17 31 12 77
-9 89 -30 16 -76 12 -93 -7z"/>
<path d="M4929 4013 c-13 -16 -12 -17 4 -4 16 13 21 21 13 21 -2 0 -10 -8 -17
-17z"/>
<path d="M365 3972 c-12 -31 -3 -63 26 -97 38 -43 47 -44 45 -3 -2 43 39 68
84 51 35 -13 38 -5 11 28 -16 20 -31 25 -90 29 -54 4 -72 2 -76 -8z"/>
<path d="M4475 3953 c-16 -8 -77 -61 -135 -117 -58 -55 -163 -155 -234 -221
-72 -67 -135 -133 -142 -151 -25 -59 -44 -216 -51 -405 l-6 -187 42 -7 c23 -4
44 -5 45 -3 9 10 12 158 3 158 -12 0 0 166 14 192 8 15 14 16 30 8 11 -6 17
-15 14 -21 -4 -5 -2 -9 4 -9 19 0 18 26 -4 70 -28 56 -45 136 -38 175 9 49 39
81 131 142 48 31 134 103 192 159 116 112 141 129 158 112 27 -27 10 -55 -105
-170 -106 -104 -171 -155 -256 -198 -29 -15 -57 -56 -57 -85 0 -9 10 -39 22
-67 l22 -50 26 32 c16 20 25 41 22 52 -5 22 14 48 37 48 9 0 41 25 71 56 30
31 102 97 160 146 58 50 111 97 118 106 18 24 14 62 -12 109 -27 47 -20 63 27
63 33 0 127 -38 127 -52 0 -5 13 1 29 14 15 13 26 27 24 31 -3 5 -42 26 -86
48 -89 43 -141 49 -192 22z"/>
<path d="M948 3943 c6 -2 18 -2 25 0 6 3 1 5 -13 5 -14 0 -19 -2 -12 -5z"/>
<path d="M1019 3914 c43 -54 14 -124 -51 -124 -17 0 -40 7 -50 17 -28 25 -24
-5 7 -47 13 -18 22 -36 20 -40 -2 -4 35 8 83 26 48 18 93 33 101 34 12 0 12 2
-1 13 -9 6 -21 28 -27 48 -15 47 -59 99 -83 99 -19 0 -19 -1 1 -26z"/>
<path d="M1 3828 l-1 -56 25 11 c17 8 20 13 10 15 -8 2 -17 13 -20 25 -2 12
-6 31 -8 42 -3 11 -5 -5 -6 -37z"/>
<path d="M4923 3851 c-10 -29 -10 -29 61 -70 39 -22 86 -43 104 -47 28 -6 32
-4 32 14 0 21 -71 76 -147 116 -40 20 -37 21 -50 -13z"/>
<path d="M519 3853 c-13 -16 -12 -17 4 -4 9 7 17 15 17 17 0 8 -8 3 -21 -13z"/>
<path d="M4894 3848 l-19 -23 23 19 c21 18 27 26 19 26 -2 0 -12 -10 -23 -22z"/>
<path d="M4768 3751 l-97 -76 27 -12 c49 -20 67 -50 67 -109 0 -75 -25 -99
-101 -99 -49 0 -59 -4 -89 -33 -76 -72 -98 -168 -57 -248 22 -42 93 -114 114
-114 7 0 2 7 -10 16 -36 25 -65 91 -60 139 6 46 46 117 81 139 34 23 72 25 71
4 -2 -16 1 -16 23 2 14 11 40 20 57 21 17 0 25 3 19 6 -10 3 -9 10 2 26 32 46
37 92 15 149 -11 29 -20 61 -20 70 0 22 67 68 98 68 26 0 82 -29 82 -42 0 -5
17 -6 38 -2 20 3 50 1 65 -5 24 -9 28 -9 25 5 -2 8 -28 25 -58 37 -59 24 -174
98 -187 121 -6 10 -32 -5 -105 -63z"/>
<path d="M67 3769 c4 -15 0 -22 -16 -26 -11 -3 -21 -8 -21 -12 0 -3 42 -24 93
-46 l92 -41 -25 51 c-14 27 -26 44 -28 38 -5 -19 -30 -16 -41 6 -6 10 -21 25
-35 34 -23 15 -24 15 -19 -4z"/>
<path d="M3538 3753 c7 -3 16 -2 19 1 4 3 -2 6 -13 5 -11 0 -14 -3 -6 -6z"/>
<path d="M3583 3739 c11 -7 23 -7 28 -2 5 5 -3 9 -19 11 -24 1 -25 0 -9 -9z"/>
<path d="M0 3675 c0 -15 4 -24 10 -20 13 8 13 32 0 40 -6 4 -10 -5 -10 -20z"/>
<path d="M3460 3689 c-35 -14 -58 -37 -95 -95 -26 -40 -42 -55 -72 -64 -98
-30 -110 -39 -116 -86 -7 -64 -43 -105 -130 -148 l-74 -36 19 -60 c20 -60 71
-120 104 -120 13 0 12 5 -5 26 -12 15 -21 40 -21 56 0 24 6 31 38 44 91 36
161 82 142 94 -7 5 -4 25 10 62 20 54 38 70 86 81 20 4 22 1 20 -35 -3 -87
106 -117 189 -54 19 15 42 40 50 56 19 37 19 106 0 160 -8 23 -15 53 -15 66 0
17 -10 31 -32 44 -36 22 -60 24 -98 9z m70 -109 c59 -59 25 -166 -69 -215 -40
-20 -56 -10 -72 47 -29 111 74 235 141 168z"/>
<path d="M3448 3549 c-24 -14 -42 -83 -28 -109 15 -27 36 -25 65 6 30 32 35
98 9 108 -20 8 -26 7 -46 -5z"/>
<path d="M3788 3615 c-9 -19 -8 -29 6 -50 29 -44 96 -24 96 29 0 31 -19 46
-57 46 -26 0 -36 -6 -45 -25z"/>
<path d="M3915 3591 c0 -33 3 -38 16 -31 9 5 22 17 30 26 12 15 12 16 0 9 -9
-5 -19 -1 -30 14 -16 20 -16 20 -16 -18z"/>
<path d="M4581 3598 c-92 -50 -263 -217 -364 -355 -71 -97 -126 -252 -127
-355 l0 -38 48 6 c26 3 52 7 58 9 6 2 19 34 28 72 9 37 19 76 23 87 3 12 1 16
-6 12 -6 -4 -11 -2 -11 3 0 6 6 11 14 11 25 0 37 87 20 135 -26 70 -27 75 -12
75 42 0 97 -82 98 -145 0 -16 -10 -72 -22 -122 -12 -51 -20 -95 -17 -97 3 -3
21 0 41 6 24 7 34 15 31 24 -4 11 3 12 28 7 33 -6 34 -6 17 13 -14 17 -16 26
-7 57 11 39 2 80 -40 186 -25 62 -22 79 24 120 18 16 43 47 54 69 22 44 123
141 149 144 9 1 33 2 52 2 32 1 35 4 38 33 2 23 -3 35 -20 47 -30 21 -47 20
-97 -6z m-358 -623 c-3 -9 -8 -14 -10 -11 -3 3 -2 9 2 15 9 16 15 13 8 -4z"/>
<path d="M5003 3601 c-56 -26 -77 -67 -68 -131 4 -27 7 -69 7 -93 0 -47 4 -52
75 -72 28 -8 36 24 10 45 -27 23 -35 115 -12 140 10 11 25 18 34 16 69 -18 71
-18 71 13 0 26 -4 30 -32 33 -18 2 -33 8 -33 13 0 6 15 11 33 13 54 5 36 42
-21 42 -12 0 -41 -9 -64 -19z"/>
<path d="M0 3573 c1 -36 4 -39 53 -62 30 -14 78 -51 114 -87 94 -95 145 -216
168 -396 5 -41 9 -48 28 -47 25 1 77 17 61 18 -6 1 -21 40 -34 89 -34 132 -99
250 -179 326 -61 58 -26 62 78 9 93 -47 181 -130 226 -213 41 -76 46 -66 10
22 -49 120 -161 230 -310 303 -84 42 -174 75 -202 75 -8 0 -13 -14 -13 -37z"/>
<path d="M749 3593 c-13 -16 -12 -17 4 -4 9 7 17 15 17 17 0 8 -8 3 -21 -13z"/>
<path d="M3274 3588 l-19 -23 23 19 c12 11 22 21 22 23 0 8 -8 2 -26 -19z"/>
<path d="M1548 3572 c-33 -17 -64 -44 -83 -71 -28 -40 -30 -49 -30 -130 0 -80
3 -92 30 -137 21 -33 48 -60 85 -81 30 -18 58 -33 63 -33 17 0 2 19 -33 42
-50 34 -75 89 -74 169 0 55 4 74 26 107 32 48 80 68 131 54 39 -11 117 -58
117 -71 0 -5 14 -4 30 2 17 6 30 14 30 18 0 9 -183 137 -213 148 -21 8 -36 5
-79 -17z"/>
<path d="M2490 3581 c0 -7 12 -27 27 -45 101 -120 74 -279 -60 -348 -81 -41
-215 -20 -218 35 -1 18 -2 18 -6 4 -3 -10 2 -36 11 -58 22 -55 56 -184 56
-212 0 -26 -44 -77 -66 -77 -7 0 -35 -19 -62 -42 -27 -24 -70 -60 -96 -82 -26
-21 -46 -40 -44 -42 8 -7 237 114 300 159 66 46 67 48 49 66 -20 20 -38 112
-26 132 5 7 21 9 40 6 29 -5 34 -2 39 19 7 27 50 43 75 27 9 -5 24 -25 33 -43
14 -27 19 -30 24 -17 3 10 1 24 -6 32 -10 12 -10 18 0 30 16 20 46 19 54 -1 3
-8 10 -12 16 -9 6 4 4 19 -5 42 -20 48 -18 129 4 179 10 23 37 56 60 74 23 18
41 39 41 45 0 6 -12 22 -26 36 l-26 24 7 -27 c10 -38 -24 -55 -57 -29 -21 18
-22 22 -9 43 10 18 10 20 0 11 -21 -21 -36 -15 -58 23 -14 23 -27 34 -36 30
-8 -3 -19 3 -24 12 -7 11 -10 13 -11 3z"/>
<path d="M2295 3558 c-40 -22 -45 -38 -45 -161 0 -110 -1 -119 -20 -124 -11
-3 -17 -9 -14 -15 3 -5 11 -5 19 2 9 7 23 6 48 -5 37 -15 80 -21 62 -7 -15 11
-15 42 0 42 24 0 75 -26 68 -34 -5 -5 6 -1 23 7 32 17 56 46 68 84 6 18 -1 31
-30 63 -39 42 -62 53 -44 21 17 -32 11 -60 -16 -77 -24 -16 -27 -16 -52 3 -20
15 -28 30 -30 60 -4 49 14 66 66 66 58 0 77 -10 91 -48 14 -40 34 -38 25 3
-14 55 -43 99 -78 116 -39 18 -111 21 -141 4z"/>
<path d="M2981 3470 c-54 -59 -58 -61 -126 -72 -156 -23 -205 -74 -181 -185 4
-18 11 -33 15 -33 10 0 63 57 62 67 -1 4 4 9 9 9 6 1 14 2 18 3 14 2 32 50 32
86 0 31 3 35 28 37 15 1 34 2 43 3 9 0 28 8 42 18 35 23 40 22 35 -8 -3 -14
-2 -28 3 -31 14 -8 84 15 112 36 35 28 46 84 22 110 -30 33 -54 24 -114 -40z"/>
<path d="M0 3450 c0 -36 2 -40 25 -40 34 0 82 -25 95 -49 15 -29 12 -104 -6
-129 -18 -26 -65 -52 -94 -52 -25 0 -25 -1 5 -46 33 -49 33 -98 -2 -148 l-26
-40 32 23 c58 42 78 5 42 -76 -11 -23 -28 -47 -39 -54 -17 -11 -18 -16 -9 -37
9 -20 8 -26 -6 -37 -9 -7 -17 -22 -17 -34 0 -24 22 -27 82 -10 40 10 48 23 23
33 -13 4 -10 16 17 70 l32 65 53 0 c32 -1 53 -6 54 -13 0 -6 7 5 14 24 15 38
17 137 5 185 -4 17 -8 22 -9 13 -1 -23 -33 -23 -69 -1 l-27 17 23 -25 c58 -65
-11 -162 -83 -115 -50 33 -44 113 10 131 17 6 31 17 33 24 1 7 15 30 29 50 15
20 28 38 30 40 1 2 10 -2 19 -10 15 -12 16 -11 9 11 -13 43 -57 118 -94 162
-30 35 -128 108 -146 108 -3 0 -5 -18 -5 -40z"/>
<path d="M4871 3474 c0 -11 3 -14 6 -6 3 7 2 16 -1 19 -3 4 -6 -2 -5 -13z"/>
<path d="M2378 3453 c6 -2 18 -2 25 0 6 3 1 5 -13 5 -14 0 -19 -2 -12 -5z"/>
<path d="M4882 3417 c-1 -18 -9 -30 -24 -36 l-22 -8 24 -6 c31 -8 32 -6 27 39
-2 28 -4 31 -5 11z"/>
<path d="M3783 3354 c-27 -44 -63 -104 -79 -134 -16 -29 -43 -68 -61 -86 l-31
-32 29 -28 c16 -16 43 -49 59 -74 28 -44 60 -69 113 -89 l27 -11 0 84 c0 78
-1 84 -19 79 -11 -3 -21 -15 -23 -26 -4 -27 -30 -33 -52 -12 -20 21 -21 45 0
45 8 0 13 4 10 8 -6 11 13 85 24 92 4 3 15 20 24 38 19 38 33 41 39 10 2 -13
5 -5 6 18 0 23 4 68 7 100 4 43 2 64 -8 78 -14 17 -18 13 -65 -60z"/>
<path d="M4199 3383 c-13 -16 -12 -17 4 -4 16 13 21 21 13 21 -2 0 -10 -8 -17
-17z"/>
<path d="M1870 3351 c-78 -24 -143 -85 -154 -144 -7 -37 33 -213 74 -331 23
-64 21 -86 -9 -86 -29 0 -77 -81 -96 -162 -21 -92 -29 -158 -21 -158 4 0 30
10 57 22 31 13 46 24 38 28 -21 14 25 142 63 176 46 40 58 58 64 91 3 15 9 32
15 38 11 11 100 -10 110 -26 3 -6 12 4 19 21 7 17 25 37 39 45 26 14 26 14
-19 15 -60 1 -164 23 -222 49 -45 19 -48 23 -48 56 0 20 7 43 16 52 9 9 12 22
8 32 -4 9 -9 39 -11 66 -6 57 15 93 70 121 68 36 166 -7 186 -81 24 -93 -69
-173 -155 -132 l-34 17 -16 -31 c-8 -17 -14 -33 -11 -35 9 -10 164 -44 197
-44 32 0 41 6 65 41 36 51 45 131 20 179 -11 22 -13 36 -7 42 19 19 41 -1 71
-64 36 -76 39 -68 9 24 -18 55 -32 78 -69 113 -67 62 -170 90 -249 66z"/>
<path d="M5101 3341 c-11 -19 -11 -28 0 -50 l13 -26 4 28 c2 15 2 37 0 50 l-3
22 -14 -24z"/>
<path d="M0 3296 c0 -51 1 -54 23 -49 12 3 28 10 35 16 19 15 14 54 -10 71
-39 28 -48 21 -48 -38z"/>
<path d="M4782 3293 c-22 -9 -42 -59 -52 -134 -12 -84 -43 -143 -94 -183 -59
-45 -199 -106 -268 -118 l-65 -10 -11 -47 c-6 -25 -21 -97 -32 -159 -12 -62
-23 -119 -26 -126 -4 -9 31 -34 107 -76 120 -66 209 -123 277 -177 38 -31 42
-32 42 -14 0 12 -6 21 -13 21 -18 0 -93 51 -140 95 -21 19 -44 35 -51 35 -11
0 -66 50 -66 61 0 2 50 2 112 1 108 -4 112 -5 140 -33 18 -18 41 -29 59 -30
16 -1 34 -3 39 -4 6 -1 16 -3 23 -4 7 -1 4 -8 -8 -18 -22 -17 -21 -17 83 26
40 17 90 36 112 42 79 24 44 32 -107 25 -82 -4 -159 -8 -173 -9 -17 -1 -25 3
-25 13 0 20 191 43 294 35 68 -5 75 -3 103 20 16 14 40 25 54 25 21 0 24 5 24
36 0 36 0 36 -37 30 -21 -3 -72 -8 -113 -11 -41 -4 -165 -20 -274 -36 -235
-35 -306 -38 -341 -15 -46 30 -23 82 25 56 29 -16 171 -23 167 -9 -1 6 12 16
28 21 17 5 57 17 90 28 115 36 194 50 291 53 91 2 99 0 97 -16 -1 -15 4 -18
20 -13 12 3 28 6 36 6 11 0 11 4 -2 18 -21 23 -22 71 -2 78 8 4 15 13 15 20 0
11 -11 14 -47 10 -27 -3 -87 -8 -134 -11 -119 -8 -298 -47 -439 -95 -66 -22
-126 -40 -134 -40 -9 0 -23 11 -31 24 -21 32 -6 69 37 88 53 25 244 87 288 94
22 4 37 11 34 16 -3 5 6 18 20 29 14 11 39 42 57 69 18 28 35 50 39 50 9 0
100 -118 100 -130 0 -6 13 -10 28 -10 16 0 63 -3 105 -6 89 -8 109 10 22 19
-68 7 -166 57 -206 106 -58 70 -61 153 -9 234 16 25 26 48 23 51 -7 7 -73 7
-91 -1z"/>
<path d="M4910 3270 c13 -8 13 -15 -4 -57 -31 -81 -32 -115 -1 -151 27 -32 91
-74 131 -86 21 -6 21 -5 13 41 -9 47 -3 129 12 170 7 19 1 24 -59 49 -37 15
-71 31 -76 36 -6 4 -15 8 -20 8 -6 0 -4 -5 4 -10z m114 -146 c3 -9 6 -38 6
-65 0 -37 -4 -51 -17 -56 -21 -8 -53 31 -53 66 0 51 49 93 64 55z"/>
<path d="M2378 3243 c7 -3 16 -2 19 1 4 3 -2 6 -13 5 -11 0 -14 -3 -6 -6z"/>
<path d="M2905 3223 c-27 -14 -60 -34 -71 -45 l-22 -19 20 -62 c11 -34 18 -81
16 -105 l-3 -43 39 -6 c23 -3 49 -16 62 -30 15 -16 31 -23 55 -22 28 2 29 3 8
6 -14 2 -40 19 -57 36 -27 28 -32 41 -34 92 -3 56 -1 60 19 63 17 3 28 -5 43
-30 25 -43 102 -102 165 -125 43 -16 50 -23 50 -46 -1 -15 4 -27 10 -27 6 0
42 -16 81 -35 38 -19 74 -35 79 -35 6 0 35 26 65 57 30 31 40 45 22 30 -43
-34 -100 -36 -162 -4 -49 24 -90 76 -90 113 0 22 -4 24 -50 24 -28 0 -65 6
-83 14 -68 28 -125 127 -115 198 3 15 4 28 4 28 -1 -1 -23 -12 -51 -27z"/>
<path d="M1890 3223 c-31 -11 -50 -37 -50 -67 0 -42 10 -55 48 -62 24 -5 33
-3 38 10 3 9 17 16 29 16 28 0 39 27 26 63 -15 38 -51 54 -91 40z"/>
<path d="M2805 3220 c-3 -6 1 -7 9 -4 18 7 21 14 7 14 -6 0 -13 -4 -16 -10z"/>
<path d="M4421 3204 c0 -11 3 -14 6 -6 3 7 2 16 -1 19 -3 4 -6 -2 -5 -13z"/>
<path d="M5090 3190 c8 -5 20 -10 25 -10 6 0 3 5 -5 10 -8 5 -19 10 -25 10 -5
0 -3 -5 5 -10z"/>
<path d="M3435 3165 c30 -15 66 -24 90 -24 36 1 34 3 -30 19 -38 9 -79 20 -90
24 -11 3 3 -5 30 -19z"/>
<path d="M4430 3162 c0 -18 60 -146 71 -150 17 -7 9 -21 -14 -24 -20 -3 -21
-6 -12 -25 l12 -23 47 31 48 30 -39 28 c-47 35 -65 55 -91 106 -12 22 -21 34
-22 27z"/>
<path d="M551 3124 c0 -11 3 -14 6 -6 3 7 2 16 -1 19 -3 4 -6 -2 -5 -13z"/>
<path d="M3297 3109 c-21 -12 -47 -68 -47 -99 0 -35 50 -80 98 -85 25 -3 42
-1 42 5 0 5 -9 10 -19 10 -22 0 -35 28 -25 53 14 36 90 31 97 -6 2 -12 5 4 6
35 1 51 -2 59 -24 74 -32 21 -104 28 -128 13z"/>
<path d="M2462 3083 c3 -32 44 -46 54 -19 8 21 -13 46 -38 46 -15 0 -19 -6
-16 -27z"/>
<path d="M2641 3059 c-35 -34 -42 -46 -39 -72 l3 -32 78 -3 c72 -3 77 -2 77
18 0 27 -32 90 -57 112 -18 17 -21 16 -62 -23z"/>
<path d="M3485 3063 c4 -10 9 -32 12 -50 3 -19 12 -33 24 -36 27 -7 24 -27
-20 -103 l-38 -68 66 -17 c71 -19 143 -47 206 -81 l40 -22 -17 26 c-22 33 -40
108 -26 108 16 0 97 -60 108 -80 19 -36 12 -60 -17 -61 -24 0 -25 -1 -8 -8 11
-4 32 -11 47 -15 l26 -6 -15 31 c-8 16 -20 61 -26 99 -10 68 -11 70 -46 81
-65 21 -130 70 -173 130 -35 51 -48 61 -91 74 -63 19 -61 19 -52 -2z m162
-151 c19 -12 43 -93 33 -113 -15 -27 -42 -32 -70 -11 -27 22 -30 53 -9 104 12
28 24 34 46 20z"/>
<path d="M560 3056 c0 -20 -49 -70 -85 -88 -16 -9 -54 -21 -83 -28 -52 -12
-54 -14 -83 -75 -52 -111 -181 -205 -279 -205 -29 0 -30 -2 -30 -45 0 -40 2
-45 18 -36 9 5 60 20 112 34 94 25 210 70 210 82 0 3 -9 1 -20 -5 -18 -9 41
83 90 143 20 25 109 70 125 63 7 -2 16 5 19 17 10 36 19 157 12 157 -3 0 -6
-6 -6 -14z"/>
<path d="M1150 3042 c0 -10 16 -33 35 -52 19 -18 32 -38 29 -44 -3 -6 4 0 15
13 32 36 26 54 -24 79 -55 27 -55 27 -55 4z"/>
<path d="M2420 3054 c0 -13 42 -74 50 -74 22 0 17 21 -11 49 -31 31 -39 36
-39 25z"/>
<path d="M5113 3015 c0 -27 2 -38 4 -22 2 15 2 37 0 50 -2 12 -4 0 -4 -28z"/>
<path d="M3419 2943 c-13 -16 -12 -17 4 -4 9 7 17 15 17 17 0 8 -8 3 -21 -13z"/>
<path d="M1280 2913 c-57 -87 -188 -112 -300 -56 -33 16 -60 25 -60 20 0 -5
13 -32 30 -58 16 -27 43 -78 59 -113 50 -112 168 -212 271 -231 35 -6 35 -6
38 32 8 117 8 121 -23 153 -16 16 -33 30 -39 30 -6 0 -5 -5 2 -12 16 -16 15
-73 -1 -86 -26 -22 -62 -24 -88 -3 l-26 20 5 -24 c2 -14 0 -25 -4 -25 -22 0
-112 176 -97 191 4 4 24 4 43 0 55 -12 117 -2 188 30 l64 29 31 -33 c28 -30
29 -31 23 -7 -9 32 -61 139 -78 163 -13 17 -15 16 -38 -20z"/>
<path d="M2088 2943 c7 -3 16 -2 19 1 4 3 -2 6 -13 5 -11 0 -14 -3 -6 -6z"/>
<path d="M2143 2943 c9 -2 23 -2 30 0 6 3 -1 5 -18 5 -16 0 -22 -2 -12 -5z"/>
<path d="M2375 2854 c-71 -55 -201 -127 -288 -159 -28 -11 -76 -43 -112 -76
-109 -99 -254 -184 -388 -228 -20 -7 -42 -22 -48 -34 -6 -12 -29 -41 -52 -64
l-40 -42 30 -45 c29 -43 31 -44 52 -30 11 8 21 20 21 26 0 23 52 79 87 93 45
19 49 19 32 -2 -8 -9 25 14 74 52 48 37 87 72 87 77 0 4 3 7 8 6 4 -2 23 7 42
18 19 12 57 27 83 34 42 11 58 24 117 94 75 87 170 175 235 217 37 24 146 119
135 118 -3 -1 -36 -25 -75 -55z m-190 -154 c-8 -13 -240 -199 -299 -239 -25
-18 -46 -28 -46 -24 0 16 91 112 153 161 79 63 211 133 192 102z"/>
<path d="M4748 2883 c7 -3 16 -2 19 1 4 3 -2 6 -13 5 -11 0 -14 -3 -6 -6z"/>
<path d="M2560 2849 c-97 -26 -198 -69 -261 -110 l-50 -32 31 -15 c34 -16 70
-76 70 -117 0 -25 13 -31 43 -20 12 5 12 13 1 57 -12 46 -12 54 3 70 9 10 21
18 28 18 7 0 26 7 44 16 18 9 47 14 67 12 30 -4 34 -1 34 20 0 36 36 88 70
102 18 7 52 10 82 8 45 -5 57 -11 90 -46 l38 -41 22 32 c12 18 26 35 31 38 17
12 -28 20 -147 24 -102 4 -133 2 -196 -16z"/>
<path d="M2939 2811 c-22 -21 -39 -48 -39 -59 0 -20 1 -20 27 4 14 13 42 34
60 45 27 17 31 24 22 35 -17 21 -28 17 -70 -25z"/>
<path d="M3905 2781 c8 -64 17 -85 54 -124 25 -28 79 -62 86 -55 2 2 -7 41
-21 87 -13 46 -24 91 -24 100 0 12 -16 22 -51 33 l-51 15 7 -56z"/>
<path d="M4096 2743 c6 -80 35 -173 60 -194 12 -9 13 -9 9 3 -3 8 3 66 15 128
11 62 20 119 20 127 0 9 -16 13 -55 13 l-55 0 6 -77z"/>
<path d="M2642 2798 c-21 -27 -20 -55 2 -107 19 -44 22 -60 14 -83 -12 -34
-68 -75 -116 -84 -18 -4 -32 -13 -32 -21 0 -7 -10 -33 -21 -55 -17 -34 -20
-53 -16 -101 3 -33 10 -64 16 -70 16 -16 41 11 41 45 0 45 37 103 81 127 21
12 43 20 48 17 9 -6 63 69 96 133 9 19 19 60 22 90 5 51 3 60 -22 89 -21 26
-34 32 -65 32 -21 0 -42 -6 -48 -12z m116 -136 c4 -38 -22 -46 -32 -9 -10 37
-7 49 12 45 11 -2 18 -14 20 -36z"/>
<path d="M2995 2769 c-90 -52 -113 -74 -127 -122 -10 -32 -9 -40 3 -48 12 -7
8 -19 -19 -71 -19 -35 -47 -81 -62 -103 -78 -106 -119 -169 -115 -174 3 -2 14
5 25 17 12 12 26 22 33 22 7 0 20 20 30 44 23 55 39 69 103 90 69 23 134 79
134 116 0 16 -7 30 -15 34 -8 3 -20 18 -26 33 -13 36 3 74 42 97 26 15 35 16
60 6 28 -12 29 -15 27 -71 -2 -42 1 -63 13 -74 14 -15 17 -14 37 2 19 17 20
20 6 72 -8 30 -13 60 -10 67 8 21 126 -11 126 -34 0 -5 -6 -14 -12 -21 -7 -8
8 1 34 20 26 19 47 36 48 39 1 12 -217 100 -249 100 -9 0 -48 -18 -86 -41z
m-25 -249 c0 -10 -9 -24 -19 -30 -30 -16 -33 -12 -16 20 18 34 35 39 35 10z"/>
<path d="M3405 2726 c-71 -75 -279 -226 -388 -281 -50 -26 -94 -49 -96 -51 -2
-2 7 -13 21 -24 57 -44 61 -129 8 -182 -22 -22 -38 -28 -71 -28 -35 0 -47 6
-75 36 -19 19 -34 40 -34 46 0 5 -16 -4 -35 -21 -47 -41 -62 -40 -140 8 -18
11 -32 0 -145 -111 -69 -68 -138 -140 -153 -160 -41 -55 -133 -110 -397 -238
-129 -63 -273 -139 -319 -169 -83 -55 -85 -56 -157 -56 l-73 0 -16 -41 c-8
-23 -32 -68 -51 -100 -35 -58 -36 -61 -29 -133 7 -88 26 -146 66 -209 26 -40
30 -54 25 -90 -8 -62 -30 -97 -89 -141 -62 -46 -94 -80 -215 -227 -144 -176
-269 -287 -468 -420 -95 -63 -176 -120 -179 -125 -10 -14 92 -11 130 5 64 27
115 29 179 7 70 -25 122 -27 130 -6 3 8 10 15 15 15 5 0 16 -7 25 -15 23 -23
103 -20 116 4 15 30 12 81 -10 128 l-19 43 32 14 c18 8 45 17 61 21 27 6 28 5
15 -12 -13 -17 -13 -17 7 -1 23 20 44 23 44 7 0 -6 26 -39 57 -73 32 -34 67
-80 77 -104 16 -35 24 -42 48 -42 15 0 28 4 28 8 0 4 -22 31 -48 59 -63 67
-119 168 -97 177 25 9 93 -23 121 -58 24 -29 25 -30 19 -6 -12 43 -39 82 -78
114 -34 27 -48 31 -112 34 -79 4 -178 -19 -259 -60 -62 -32 -65 -7 -5 43 29
24 165 155 304 292 223 219 275 265 275 240 0 -10 -293 -304 -394 -396 -50
-44 -81 -77 -70 -73 44 18 172 37 207 31 133 -20 221 -142 234 -322 l6 -83 38
0 c42 0 43 2 39 70 -2 35 -2 35 17 15 11 -11 26 -35 33 -53 13 -27 20 -32 49
-32 32 0 33 1 19 23 -8 12 -25 27 -38 33 -12 7 -33 30 -46 52 -13 22 -32 42
-42 44 -10 3 -28 25 -40 49 -32 65 -66 123 -77 131 -5 4 8 8 30 8 47 0 139
-40 166 -72 20 -26 26 -53 7 -42 -8 5 -9 2 -4 -12 19 -48 33 -104 27 -110 -3
-4 -1 -4 5 -1 6 4 28 -18 50 -48 30 -43 45 -55 66 -55 15 0 30 5 34 12 4 7 3
8 -4 4 -7 -4 -12 -1 -12 7 0 9 -16 34 -35 57 -20 24 -34 45 -31 47 7 7 66 -39
66 -51 0 -6 7 0 16 13 12 17 24 22 45 19 15 -3 26 -1 23 4 -3 4 -11 8 -18 8
-33 0 -134 83 -188 153 -86 112 -184 167 -298 167 -73 0 -92 37 -42 81 26 24
31 25 110 18 58 -5 99 -15 136 -33 29 -14 64 -26 77 -26 13 0 62 -19 109 -41
47 -23 104 -50 127 -60 24 -10 67 -36 96 -59 54 -40 94 -56 63 -24 -25 25 -19
41 27 68 23 14 56 39 72 56 34 36 45 38 39 7 -4 -20 -4 -21 5 -2 5 11 10 43
10 72 1 84 -47 111 -91 52 -81 -109 -146 -148 -226 -133 -58 10 -84 28 -152
100 -125 135 -203 262 -235 385 -13 48 -16 92 -13 177 4 108 -4 131 -17 47 -8
-45 -54 -155 -65 -155 -23 0 -27 182 -6 253 8 26 10 44 5 41 -14 -8 -10 19 5
39 15 19 31 24 20 5 -5 -7 -3 -8 5 -4 7 5 10 11 6 14 -3 3 7 12 22 19 20 10
22 12 7 9 -17 -3 -20 1 -16 16 7 26 27 35 107 43 l69 8 -43 -44 c-27 -28 -45
-39 -48 -31 -2 6 -9 10 -14 7 -5 -3 -4 -14 3 -24 10 -17 13 -16 40 15 29 33
169 126 239 159 27 13 35 22 32 35 -5 20 47 61 105 81 38 13 66 -3 58 -34 -3
-13 0 -17 11 -13 8 3 21 6 28 6 11 0 8 13 -10 53 -13 28 -26 66 -29 82 -6 28
-3 33 27 47 l33 16 22 -58 c27 -69 76 -140 97 -140 19 0 19 11 -2 55 -16 34
-16 38 0 68 12 20 49 52 105 87 48 30 106 75 129 100 71 76 76 80 90 80 7 0
13 -10 13 -22 0 -15 -32 -55 -92 -118 l-93 -95 96 93 96 94 7 86 c3 48 11 91
16 96 12 12 13 -3 10 -89 l-2 -60 26 24 c14 13 23 27 21 31 -7 12 21 98 38
115 23 22 116 18 102 -5 -3 -5 4 -6 14 -3 25 6 54 -10 125 -71 130 -113 226
-264 226 -355 0 -97 -60 -200 -144 -244 -53 -28 -154 -29 -206 -3 -102 53
-144 137 -141 288 2 99 34 157 121 219 54 39 81 37 123 -10 38 -42 63 -82 50
-80 -4 1 -17 1 -27 0 -15 -1 -12 -6 15 -24 44 -29 74 -100 65 -150 -18 -99
-142 -151 -206 -87 -19 19 -27 69 -13 83 3 4 16 -5 29 -18 14 -15 34 -25 51
-25 21 0 24 3 14 9 -26 16 -22 41 6 41 21 0 24 -4 20 -22 -6 -22 -6 -22 8 -4
40 53 0 126 -67 126 -98 0 -142 -146 -71 -231 94 -111 272 -51 298 102 15 87
-60 222 -198 358 -70 68 -81 66 -192 -40 l-83 -80 -4 -158 c-2 -130 -6 -162
-21 -184 -16 -24 -57 -41 -42 -17 3 6 -1 7 -10 3 -13 -5 -14 -7 -3 -14 7 -5
13 -13 13 -18 0 -15 137 -199 192 -258 l48 -52 75 20 c66 17 87 19 175 10 138
-14 245 -44 343 -97 80 -43 104 -46 61 -8 -12 10 -28 33 -35 49 -12 26 -13 27
-14 8 0 -49 -48 -20 -79 47 -21 45 -87 121 -131 151 l-23 15 36 75 c77 157 60
259 -70 419 -40 50 -73 95 -73 101 0 12 8 20 75 75 94 77 158 99 315 111 57 4
72 1 120 -24 69 -35 115 -94 130 -168 12 -60 12 -65 -27 -230 -27 -116 -27
-193 -2 -247 16 -37 26 -35 34 5 4 17 18 52 32 76 14 24 20 40 13 36 -9 -6
-11 1 -7 26 11 63 40 159 48 159 5 0 9 -4 9 -10 0 -5 16 -32 36 -60 29 -41 41
-50 65 -50 37 0 97 -25 126 -52 17 -15 23 -17 23 -7 0 8 -15 25 -33 38 l-32
24 2 115 c1 63 7 129 13 147 23 69 99 116 101 63 1 -18 3 -17 8 7 20 81 124
204 198 234 27 11 32 18 27 36 -5 21 16 55 35 55 23 0 71 -24 71 -35 0 -8 20
-14 54 -18 40 -4 82 -20 155 -59 77 -41 102 -50 112 -41 9 9 8 11 -8 7 -13 -4
-37 9 -74 38 -73 59 -126 95 -239 158 -52 29 -111 62 -130 73 -19 11 -32 17
-28 13 9 -10 -18 -99 -48 -159 -38 -76 -91 -134 -148 -161 -110 -54 -193 -43
-267 34 -38 39 -49 45 -60 35 -19 -17 -76 -35 -110 -35 -52 0 -128 21 -164 46
-34 23 -40 24 -100 14 -149 -24 -250 -73 -364 -176 -33 -30 -56 -44 -59 -36
-2 6 -8 12 -13 12 -4 0 -24 16 -43 35 -29 29 -32 35 -16 35 43 0 76 -25 71
-54 -1 -5 30 20 68 57 39 36 82 74 96 83 22 14 25 23 25 74 0 73 21 86 73 46
41 -31 77 -33 102 -6 14 16 17 30 12 74 -5 47 -2 57 16 74 25 24 72 44 81 35
3 -4 6 -16 6 -27 1 -21 1 -21 15 -2 13 17 13 22 0 36 -26 28 -18 66 18 94 41
31 136 70 210 87 32 7 54 16 50 20 -6 6 -167 71 -168 68 0 0 -22 -24 -50 -53z
m-236 -294 c14 -26 -5 -52 -39 -52 -33 0 -50 31 -30 55 17 21 57 19 69 -3z
m644 -318 c26 -9 47 -18 47 -21 0 -3 -14 -34 -31 -70 -31 -62 -32 -65 -26
-168 5 -96 4 -106 -13 -115 -27 -15 -68 4 -81 37 -6 16 -17 40 -25 55 -8 14
-14 37 -13 50 l1 23 8 -25 c6 -18 8 -9 7 35 0 37 -2 47 -5 25 -4 -34 -5 -32
-48 59 -24 52 -44 97 -44 101 0 10 94 22 114 14 9 -3 16 -13 16 -21 0 -11 7
-7 21 11 11 14 22 26 23 26 1 0 23 -7 49 -16z m-2084 -530 c12 -15 21 -32 21
-39 0 -12 -97 -85 -113 -85 -13 0 -37 68 -31 85 7 18 72 65 91 65 6 0 21 -12
32 -26z m879 -103 c47 -83 152 -151 233 -151 20 0 28 -4 23 -11 -9 -16 29 -3
99 32 33 17 66 28 76 24 26 -8 121 -110 121 -129 0 -30 -29 -16 -60 28 -50 70
-69 75 -137 39 -65 -35 -205 -67 -255 -59 -39 6 -101 70 -143 149 -28 50 -28
50 -10 84 10 18 21 33 25 33 3 0 16 -17 28 -39z m471 -234 c15 -19 4 -27 -36
-27 -38 0 -47 26 -10 33 12 2 25 5 28 6 4 0 12 -5 18 -12z m-1595 -583 c19
-18 21 -65 4 -82 -17 -17 -53 -15 -68 3 -11 14 -14 13 -26 -3 -14 -21 -55 -24
-61 -6 -6 18 54 58 61 42 4 -7 4 -3 2 9 -3 16 4 25 28 37 39 19 41 19 60 0z
m136 -141 c-1 -16 -3 -15 -20 6 -11 12 -17 27 -14 32 8 13 34 -16 34 -38z
m-384 -84 c3 -6 2 -15 -3 -20 -14 -14 -43 0 -36 17 6 17 29 19 39 3z m-328
-256 c51 -44 27 -116 -38 -116 -36 0 -70 31 -70 65 0 25 43 68 68 68 11 0 29
-8 40 -17z m-164 -89 c18 -17 21 -40 6 -49 -9 -6 -80 20 -80 29 0 36 46 48 74
20z"/>
<path d="M1680 1582 c-42 -13 -67 -70 -39 -87 13 -9 89 43 89 61 0 17 -30 33
-50 26z"/>
<path d="M1401 2724 c0 -11 3 -14 6 -6 3 7 2 16 -1 19 -3 4 -6 -2 -5 -13z"/>
<path d="M2572 2685 c0 -16 2 -22 5 -12 2 9 2 23 0 30 -3 6 -5 -1 -5 -18z"/>
<path d="M1412 2680 c0 -14 2 -19 5 -12 2 6 2 18 0 25 -3 6 -5 1 -5 -13z"/>
<path d="M4988 2663 c6 -2 18 -2 25 0 6 3 1 5 -13 5 -14 0 -19 -2 -12 -5z"/>
<path d="M1929 2643 c-13 -16 -12 -17 4 -4 9 7 17 15 17 17 0 8 -8 3 -21 -13z"/>
<path d="M2131 2570 c-46 -44 -82 -80 -79 -80 6 0 115 19 175 31 49 10 53 13
59 45 8 43 -16 84 -49 84 -13 -1 -54 -31 -106 -80z"/>
<path d="M4858 2643 c7 -3 16 -2 19 1 4 3 -2 6 -13 5 -11 0 -14 -3 -6 -6z"/>
<path d="M3565 2625 c-103 -23 -115 -30 -115 -69 0 -37 -14 -54 -57 -65 -58
-15 -49 -142 11 -153 14 -3 23 -1 20 3 -3 5 -12 9 -19 9 -12 0 -12 5 -3 25 16
36 44 31 73 -13 14 -21 41 -46 61 -55 19 -10 32 -22 29 -27 -3 -6 -2 -10 2
-10 18 0 33 25 33 57 0 22 6 36 20 43 32 17 59 -5 92 -78 43 -96 60 -112 122
-112 52 0 125 27 159 58 23 20 45 58 28 48 -6 -4 -11 -1 -11 8 0 8 -18 31 -40
52 -49 46 -86 69 -52 32 54 -59 -7 -140 -79 -103 -28 15 -29 15 -29 -10 0 -19
10 -31 37 -48 29 -17 34 -23 20 -25 -41 -8 -64 7 -80 50 -8 24 -21 57 -28 75
-15 36 -12 41 21 45 13 2 32 11 42 21 10 9 29 17 42 17 17 0 29 9 38 27 7 15
28 36 45 46 33 19 33 19 79 -3 25 -13 49 -32 53 -43 6 -17 10 -12 19 26 7 25
12 50 12 56 0 5 -31 21 -69 35 -37 15 -86 42 -107 60 -33 28 -41 31 -52 20
-16 -18 -40 -17 -127 1 -83 18 -110 18 -190 0z m224 -81 c46 -5 70 -3 75 5 9
14 36 15 36 1 0 -5 -15 -27 -34 -48 -25 -28 -51 -43 -95 -56 -33 -10 -68 -16
-78 -14 -22 4 -77 107 -60 113 23 8 62 12 75 9 8 -2 44 -7 81 -10z m-166 -36
c36 -43 5 -120 -51 -131 -92 -18 -130 105 -47 152 28 16 76 5 98 -21z"/>
<path d="M4728 2623 c7 -3 16 -2 19 1 4 3 -2 6 -13 5 -11 0 -14 -3 -6 -6z"/>
<path d="M337 2613 c-9 -2 -56 -24 -104 -49 -53 -27 -100 -44 -121 -44 -19 0
-52 -5 -73 -12 -32 -9 -39 -16 -39 -36 0 -24 0 -24 28 -6 73 48 125 55 139 18
8 -22 -11 -32 -94 -45 -45 -7 -73 -16 -73 -24 0 -10 36 -12 147 -12 82 0 140
2 130 5 -10 2 -16 9 -14 15 5 16 61 21 87 7 18 -10 19 -14 8 -27 -11 -14 -9
-15 19 -9 18 4 34 3 38 -3 3 -6 14 -11 23 -11 12 0 17 9 18 30 1 24 -6 36 -30
52 -22 16 -27 17 -17 5 11 -15 11 -17 -2 -17 -17 0 -135 64 -157 86 -28 28 19
16 82 -21 38 -23 58 -30 55 -21 -8 21 6 28 59 28 52 0 113 -29 164 -77 56 -52
112 -85 146 -85 61 0 95 75 58 129 -18 25 -130 101 -148 101 -6 -1 6 -10 26
-20 64 -34 85 -82 50 -113 -31 -28 -57 -20 -134 43 -106 88 -208 130 -271 113z"/>
<path d="M4590 2610 c-12 -8 -11 -10 8 -10 12 0 22 5 22 10 0 13 -11 13 -30 0z"/>
<path d="M4658 2613 c7 -3 16 -2 19 1 4 3 -2 6 -13 5 -11 0 -14 -3 -6 -6z"/>
<path d="M5084 2515 c-10 -8 -14 -15 -7 -15 6 0 18 -3 27 -6 12 -4 16 0 16 15
0 25 -9 26 -36 6z"/>
<path d="M2410 2490 c-14 -4 -19 -8 -11 -9 25 -2 -9 -30 -44 -37 -42 -8 -84 4
-64 17 15 10 -63 5 -189 -12 -207 -29 -306 -105 -458 -353 -49 -80 -97 -159
-106 -175 -17 -31 -39 -44 -93 -56 -41 -9 -117 -90 -133 -141 -17 -58 -15
-109 5 -130 31 -31 178 -6 264 45 31 19 36 26 33 53 -2 17 -13 47 -24 65 -11
19 -20 39 -20 44 0 12 70 116 99 147 30 31 46 28 70 -13 27 -47 74 -73 143
-81 47 -5 58 -10 58 -25 0 -10 -8 -23 -17 -29 -17 -11 -17 -11 0 -6 10 3 21 6
23 6 2 0 4 20 4 45 0 53 30 137 62 174 13 14 19 23 14 19 -5 -5 -18 11 -28 34
-21 47 -43 75 -72 90 -17 9 -17 8 2 -20 16 -22 22 -45 22 -82 0 -47 -4 -56
-39 -91 -43 -43 -80 -50 -130 -25 -42 22 -61 58 -61 117 0 45 4 55 34 85 19
19 47 37 63 40 16 3 33 15 38 26 6 11 14 19 18 17 5 -2 13 4 18 14 10 17 12
17 43 -3 19 -11 36 -20 39 -20 17 0 37 36 37 65 0 48 29 64 149 82 117 18 168
13 174 -20 3 -17 5 -15 6 8 1 23 3 27 11 15 16 -24 11 -62 -10 -98 -11 -18
-81 -93 -154 -165 -126 -124 -134 -135 -145 -185 -12 -57 -14 -92 -6 -92 3 0
28 11 55 25 31 16 47 30 44 38 -6 16 34 69 47 62 5 -4 9 4 9 17 1 39 54 88 96
88 12 0 32 9 45 21 13 11 18 18 12 14 -23 -11 -14 25 14 63 37 49 45 54 63 37
12 -13 10 -20 -20 -52 -29 -31 -26 -30 12 6 l47 44 -25 32 c-21 27 -24 43 -24
109 0 76 18 142 43 158 16 10 -9 9 -43 -2z m-447 -172 c7 -21 -4 -38 -23 -38
-23 0 -34 16 -26 35 7 18 43 20 49 3z m-424 -524 c33 -41 28 -89 -13 -130 -62
-62 -131 -36 -131 51 0 88 96 140 144 79z"/>
<path d="M2333 2473 c9 -2 25 -2 35 0 9 3 1 5 -18 5 -19 0 -27 -2 -17 -5z"/>
<path d="M5090 2453 c-74 -26 -256 -101 -302 -124 -32 -16 -62 -39 -69 -51
-16 -30 -6 -116 25 -212 28 -84 34 -182 16 -246 -5 -19 -32 -73 -60 -120 -27
-47 -50 -93 -50 -102 0 -38 80 -29 135 16 16 13 17 15 2 10 -14 -5 -11 8 18
67 19 41 41 75 48 76 6 2 20 -8 29 -21 17 -23 17 -25 -5 -53 -20 -26 -19 -25
20 7 39 33 40 36 28 60 -7 14 -16 44 -20 65 -16 101 -17 102 -26 78 -13 -36
-40 -19 -32 20 8 42 12 46 27 24 18 -24 24 -21 28 10 2 19 -6 35 -29 59 -19
18 -33 42 -33 56 0 17 -3 19 -9 9 -16 -25 -56 81 -46 122 7 27 55 53 80 43 10
-3 20 4 29 22 17 34 93 105 132 125 16 8 44 18 62 22 22 5 32 12 32 26 0 20
-4 21 -30 12z m-225 -603 c0 -27 -22 -39 -31 -16 -8 22 3 49 19 43 6 -2 12
-14 12 -27z"/>
<path d="M1444 2350 c-39 -10 -99 -24 -134 -31 l-64 -12 49 -18 c85 -30 130
-24 183 25 20 18 49 58 40 55 -2 0 -35 -9 -74 -19z"/>
<path d="M2821 2353 c-29 -24 -38 -85 -17 -117 56 -87 189 -9 142 83 -19 36
-24 39 -68 46 -25 4 -41 1 -57 -12z"/>
<path d="M3451 2314 c15 -18 62 -44 81 -44 7 0 -1 9 -18 19 -18 11 -35 24 -38
30 -4 6 -14 11 -23 11 -13 0 -13 -3 -2 -16z"/>
<path d="M0 2271 c0 -48 1 -51 19 -41 40 21 377 1 393 -23 3 -6 -3 -17 -14
-26 -13 -11 -24 -41 -34 -91 -26 -138 -89 -226 -199 -276 -32 -15 -75 -25
-109 -27 l-56 -2 0 -42 0 -43 68 4 c76 4 182 37 223 69 41 33 96 109 118 164
10 27 27 99 37 161 17 103 21 112 41 112 12 0 32 -4 46 -9 20 -8 27 -4 50 24
l27 34 -53 10 c-121 25 -261 42 -404 48 l-153 6 0 -52z"/>
<path d="M3330 2310 c-9 -6 -10 -10 -3 -10 6 0 15 5 18 10 8 12 4 12 -15 0z"/>
<path d="M5090 2312 c-31 -14 -101 -102 -112 -139 -5 -21 -19 -48 -31 -61 -20
-21 -20 -25 -7 -50 16 -28 64 -56 115 -66 27 -5 28 -5 8 6 -18 8 -23 20 -23
48 0 49 37 131 61 137 16 5 19 15 19 69 0 64 -2 68 -30 56z"/>
<path d="M1109 2282 c-9 -4 -36 -25 -60 -47 l-44 -40 121 -81 c167 -111 192
-114 289 -30 40 34 40 34 21 55 -30 33 -66 27 -111 -20 -37 -40 -41 -41 -89
-36 -40 3 -55 11 -78 36 -40 44 -39 101 1 142 l29 29 -31 -1 c-18 0 -39 -3
-48 -7z"/>
<path d="M963 2248 c-26 -13 -29 -23 -9 -31 8 -3 18 5 25 19 6 13 10 24 8 23
-1 0 -12 -5 -24 -11z"/>
<path d="M2187 2236 c-5 -13 -15 -17 -32 -14 -16 3 -25 1 -25 -7 0 -31 63 -51
82 -27 11 13 11 14 -1 7 -10 -6 -13 -4 -9 6 3 8 2 23 -2 33 -6 18 -7 18 -13 2z"/>
<path d="M1251 2228 c-32 -11 -50 -37 -51 -68 0 -51 47 -66 94 -29 55 43 21
121 -43 97z"/>
<path d="M678 2185 c-39 -22 -66 -72 -97 -182 -36 -124 -53 -164 -101 -239
-37 -55 -40 -66 -40 -127 0 -53 -3 -67 -15 -67 -9 0 -38 -25 -66 -55 -85 -90
-185 -127 -237 -87 -22 17 -23 52 0 52 5 0 6 -4 3 -10 -3 -5 -2 -10 3 -10 6 0
12 6 15 14 3 7 20 16 39 19 18 4 50 11 71 16 34 8 37 8 26 -7 -7 -10 16 11 50
44 57 55 62 64 52 83 -15 27 -29 27 -82 -3 -52 -30 -140 -53 -232 -61 -66 -7
-67 -7 -67 -36 0 -25 3 -29 19 -24 21 6 51 -3 51 -16 0 -5 -16 -9 -35 -9 -34
0 -35 -1 -35 -38 0 -37 1 -38 34 -34 39 5 46 -3 39 -41 -6 -30 -38 -37 -62
-14 -25 23 -6 -15 44 -87 l48 -68 11 34 c7 18 13 53 14 78 4 53 7 58 31 43 15
-10 23 -8 40 11 12 13 45 36 74 52 43 24 64 29 123 29 53 0 70 3 67 13 -3 7 0
19 7 27 11 14 16 14 38 -1 13 -9 22 -12 20 -8 -3 5 -22 37 -43 72 -23 40 -34
67 -28 73 6 6 32 -27 71 -90 34 -54 62 -102 62 -105 0 -14 -23 -4 -41 17 l-18
22 -1 -22 c0 -14 16 -38 43 -62 68 -63 92 -120 92 -217 l0 -82 35 5 c59 8 61
10 50 38 -14 37 -13 43 13 59 40 25 65 29 70 9 3 -11 5 -6 6 12 1 17 4 40 7
53 4 15 2 22 -8 22 -8 0 -24 14 -36 30 -28 37 -38 38 -37 4 0 -15 -8 -31 -17
-37 -14 -9 -24 -4 -58 28 -22 22 -48 56 -56 75 -9 19 -24 53 -34 75 -51 109
-61 140 -55 167 4 15 10 28 15 28 5 0 46 -38 92 -84 87 -87 119 -109 199 -132
27 -8 49 -19 49 -24 0 -6 17 8 37 31 31 34 35 43 25 59 -10 16 -7 22 21 42 44
31 62 49 77 77 12 23 16 121 7 166 -5 25 9 35 52 35 35 0 115 -33 127 -52 3
-5 19 13 35 40 39 69 102 120 170 139 56 15 58 17 134 125 42 60 75 112 73
114 -3 2 -33 -21 -69 -52 -35 -31 -84 -66 -109 -79 -25 -13 -72 -42 -105 -64
-33 -23 -68 -41 -77 -41 -9 0 -34 -11 -54 -25 -52 -35 -107 -48 -174 -40 -47
5 -60 11 -68 30 -6 12 -31 33 -57 45 -99 48 -221 8 -272 -89 -33 -63 -32 -145
3 -196 43 -64 94 -99 174 -120 30 -7 46 -17 49 -30 3 -16 -3 -17 -57 -12 -144
13 -272 140 -272 268 0 43 38 124 78 167 16 17 26 32 22 32 -5 0 1 23 13 52
35 81 98 96 220 50 72 -27 187 -95 193 -114 4 -14 10 -15 37 -6 18 6 36 14 40
18 9 8 -137 97 -273 166 -106 53 -175 66 -222 39z m597 -301 c-27 -24 -58 -44
-69 -44 -25 0 -17 8 55 60 30 21 56 36 59 33 3 -3 -17 -25 -45 -49z m-347 6
c93 -57 97 -204 7 -260 -68 -42 -176 -16 -210 50 -22 42 -19 118 5 158 42 68
132 92 198 52z"/>
<path d="M805 1815 c-35 -34 -34 -86 2 -115 51 -40 123 -3 123 62 0 36 -40 78
-75 78 -14 0 -37 -11 -50 -25z m93 -98 c2 -10 -3 -17 -12 -17 -18 0 -29 16
-21 31 9 14 29 6 33 -14z"/>
<path d="M4263 2184 c-56 -20 -136 -93 -162 -147 -41 -85 -18 -181 61 -252 54
-49 183 -110 288 -135 47 -12 93 -23 103 -26 9 -3 17 -1 17 5 0 6 -9 11 -19
11 -11 0 -22 4 -26 10 -8 14 32 51 49 44 10 -4 23 18 46 78 70 180 23 326
-129 400 -58 29 -167 34 -228 12z m177 -76 c86 -45 136 -146 111 -227 -27 -92
-107 -147 -202 -138 -106 9 -179 77 -187 172 -6 71 2 97 41 141 63 73 156 93
237 52z"/>
<path d="M4293 2040 c-34 -21 -63 -66 -63 -100 0 -46 60 -120 98 -120 13 0 13
3 -1 18 -10 10 -17 34 -17 53 0 81 128 109 161 36 8 -18 9 -14 5 17 -7 51 -30
85 -71 102 -46 19 -74 18 -112 -6z"/>
<path d="M174 2160 c67 -59 69 -135 5 -196 -26 -25 -38 -29 -84 -29 -38 0 -59
5 -74 19 l-21 19 0 -61 0 -62 63 0 c38 0 77 7 103 19 49 22 106 87 122 138 10
33 9 42 -14 81 -15 25 -46 56 -72 73 -59 38 -72 37 -28 -1z"/>
<path d="M1870 2186 c0 -2 7 -6 15 -10 8 -3 15 -1 15 4 0 6 -7 10 -15 10 -8 0
-15 -2 -15 -4z"/>
<path d="M1779 2121 c-63 -64 -17 -150 76 -142 19 2 18 3 -2 11 -15 6 -23 18
-23 34 0 32 23 39 53 16 l25 -20 6 30 c17 87 -72 134 -135 71z"/>
<path d="M56 2104 c-36 -36 -9 -94 44 -94 43 0 69 67 38 98 -17 17 -64 15 -82
-4z"/>
<path d="M3285 2084 c-44 -23 -66 -45 -81 -81 -40 -93 10 -233 98 -279 28 -14
114 -17 158 -5 21 6 28 19 47 86 12 44 22 98 22 120 1 53 -35 124 -78 152 -41
28 -121 31 -166 7z m146 -90 c51 -49 51 -124 -1 -175 -23 -24 -37 -29 -75 -29
-40 0 -52 5 -81 34 -28 28 -34 42 -34 75 0 115 112 170 191 95z"/>
<path d="M3318 1949 c-21 -12 -24 -69 -6 -87 22 -22 66 -14 85 14 15 24 15 29
2 53 -16 28 -53 38 -81 20z"/>
<path d="M818 2033 c12 -2 30 -2 40 0 9 3 -1 5 -23 4 -22 0 -30 -2 -17 -4z"/>
<path d="M990 1963 c19 -23 41 -42 48 -42 21 -2 13 16 -20 41 -57 43 -64 43
-28 1z"/>
<path d="M3111 1964 c0 -11 3 -14 6 -6 3 7 2 16 -1 19 -3 4 -6 -2 -5 -13z"/>
<path d="M4961 1911 c6 -67 35 -131 60 -131 6 0 30 14 55 30 36 25 42 34 34
48 -6 9 -14 30 -20 45 -7 19 -24 34 -52 46 -88 38 -85 40 -77 -38z m101 -66
c0 -5 -5 -11 -11 -13 -6 -2 -11 4 -11 13 0 9 5 15 11 13 6 -2 11 -8 11 -13z"/>
<path d="M1196 1955 c-15 -11 -16 -15 -5 -15 8 0 24 7 35 15 14 11 15 14 4 14
-8 0 -24 -6 -34 -14z"/>
<path d="M2364 1746 c-129 -129 -131 -135 -41 -224 34 -34 66 -62 70 -62 17 0
5 30 -22 52 -54 46 -56 62 -14 108 34 39 80 70 102 70 5 0 12 -8 14 -17 3 -10
5 26 6 80 0 53 -2 97 -5 97 -3 0 -53 -47 -110 -104z"/>
<path d="M4010 1832 c0 -38 58 -130 129 -201 64 -65 82 -78 103 -74 48 9 69
-61 29 -98 -34 -32 -28 -88 13 -141 19 -24 51 -67 71 -95 38 -56 42 -59 65
-42 11 8 12 12 2 16 -16 6 -43 58 -35 67 4 3 19 6 35 6 16 0 43 10 59 23 24
17 44 22 90 22 32 -1 59 2 59 6 0 4 -17 15 -37 25 -29 14 -58 18 -123 17 -47
-1 -93 -3 -103 -5 -11 -2 -25 7 -33 18 -14 20 -13 24 9 50 50 57 221 40 304
-31 21 -17 44 -30 51 -28 8 3 5 10 -10 22 -32 26 -18 51 29 51 21 0 62 11 92
25 29 14 59 25 65 24 6 -1 20 -1 31 0 15 1 17 3 6 10 -10 7 -1 19 39 50 64 51
85 56 133 36 37 -15 37 -15 37 9 0 18 -7 25 -31 30 -25 5 -30 10 -27 28 2 18
9 23 31 23 26 -1 27 1 27 51 l0 52 -57 -31 c-32 -17 -101 -63 -153 -102 -116
-86 -156 -111 -196 -119 -35 -8 -322 37 -393 61 -130 44 -230 118 -282 208
-16 27 -29 44 -29 37z"/>
<path d="M354 1768 l-29 -33 33 29 c30 28 37 36 29 36 -2 0 -16 -15 -33 -32z"/>
<path d="M3150 1746 c0 -23 40 -85 80 -125 41 -41 58 -51 84 -51 21 0 40 -8
54 -23 20 -21 52 -86 52 -105 0 -4 -20 -32 -45 -60 -66 -79 -73 -155 -17 -221
l27 -32 35 38 c19 20 26 30 15 22 -29 -24 -45 -13 -45 31 0 28 8 49 28 72 15
18 36 50 46 71 11 20 23 37 27 37 4 0 13 -16 19 -35 6 -19 16 -33 21 -30 12 8
12 62 -1 70 -28 17 -63 112 -65 175 -3 57 -5 65 -21 62 -55 -7 -143 -4 -176 7
-20 7 -55 32 -77 56 -23 25 -41 43 -41 41z"/>
<path d="M1232 1645 c0 -16 2 -22 5 -12 2 9 2 23 0 30 -3 6 -5 -1 -5 -18z"/>
<path d="M4037 1628 c11 -13 31 -43 43 -68 23 -45 108 -170 116 -170 3 0 4 30
2 66 -1 37 -4 61 -6 55 -7 -22 -31 -10 -53 27 -13 20 -29 43 -36 50 -7 7 -13
17 -13 22 0 9 -52 40 -66 40 -4 0 2 -10 13 -22z"/>
<path d="M3755 1601 c-42 -26 -71 -60 -90 -103 -18 -44 -19 -68 -4 -101 12
-26 75 -67 104 -67 15 0 14 3 -4 18 -38 30 -30 115 13 151 45 38 130 25 139
-21 2 -13 5 -1 6 26 1 42 -3 52 -33 82 -40 40 -83 45 -131 15z"/>
<path d="M1246 1565 c4 -22 10 -47 15 -55 15 -28 10 25 -6 61 l-15 34 6 -40z"/>
<path d="M2200 1580 l-25 -8 28 -1 c15 -1 27 4 27 9 0 6 -1 10 -2 9 -2 -1 -14
-5 -28 -9z"/>
<path d="M2005 1542 c-6 -5 -32 -15 -60 -21 -81 -20 -200 -70 -259 -109 l-56
-36 31 -32 32 -33 79 50 c100 62 171 83 252 76 165 -15 275 -86 594 -385 128
-120 217 -194 265 -219 37 -19 46 -10 13 13 -23 14 -192 210 -297 343 -19 23
-107 112 -196 196 -159 151 -162 153 -211 156 l-50 4 29 -33 c34 -38 36 -53
10 -76 -35 -32 -79 -5 -146 87 -13 17 -24 24 -30 19z m380 -200 c39 -37 79
-78 89 -90 20 -24 16 -30 -6 -9 -7 7 -42 33 -78 59 -104 74 -133 108 -92 108
9 0 49 -31 87 -68z"/>
<path d="M3986 1506 c12 -82 -32 -165 -112 -212 -38 -22 -54 -26 -103 -22 -50
3 -67 10 -113 44 -94 71 -94 71 -90 3 4 -57 5 -59 31 -59 17 0 37 -10 52 -26
21 -23 24 -35 24 -107 0 -45 -2 -115 -5 -156 l-5 -74 134 -48 c73 -26 149 -56
168 -66 48 -25 92 -74 107 -116 l12 -36 12 59 c7 33 16 60 20 60 5 0 17 7 28
15 19 14 19 14 -2 9 -11 -3 -36 -1 -55 4 -36 9 -39 18 -25 79 7 31 6 32 -33
43 -43 11 -71 36 -169 148 -35 39 -69 72 -76 72 -19 0 -46 34 -46 58 0 25 33
46 61 37 10 -4 57 -57 103 -119 81 -107 114 -136 156 -136 15 0 20 7 20 28 -1
23 -2 24 -11 10 -18 -31 -34 -20 -92 65 -71 104 -74 114 -51 132 30 23 45 18
91 -30 50 -53 72 -56 95 -15 9 17 24 30 33 30 19 0 19 1 -1 49 -9 22 -30 50
-50 63 -37 25 -46 58 -15 58 11 0 26 -8 33 -18 7 -9 38 -39 68 -65 52 -47 74
-87 47 -87 -6 -1 4 -8 23 -16 39 -17 87 -5 74 19 -29 50 -70 97 -85 97 -22 0
-112 89 -190 189 -34 45 -64 81 -65 81 -2 0 -1 -20 2 -44z m86 -223 c22 -20
23 -51 1 -75 -21 -24 -48 -23 -74 3 -22 22 -19 55 9 77 22 16 42 15 64 -5z
m-249 -242 c13 -5 42 -32 63 -60 22 -28 46 -53 54 -56 15 -5 80 -93 80 -108 0
-16 -36 -5 -62 20 -16 16 -28 21 -28 13 0 -19 -102 -7 -143 17 -28 17 -32 25
-35 68 -7 106 9 129 71 106z"/>
<path d="M3265 1515 c-26 -25 -33 -59 -15 -70 17 -10 11 -28 -6 -21 -14 5 -15
4 -5 -8 6 -7 25 -16 41 -18 27 -4 30 -2 30 24 0 21 6 29 24 34 34 8 50 -3 35
-24 -12 -16 -12 -16 5 0 22 20 17 53 -14 86 -27 29 -65 28 -95 -3z"/>
<path d="M5080 1530 l-35 -7 38 -2 c20 0 37 4 37 9 0 6 -1 9 -2 9 -2 -1 -19
-5 -38 -9z"/>
<path d="M1044 1489 c-11 -13 -27 -19 -41 -16 -12 2 -20 1 -18 -3 3 -4 -13
-32 -34 -61 -41 -58 -74 -119 -86 -159 -4 -14 10 2 30 35 34 56 50 76 140 183
37 42 44 60 9 21z"/>
<path d="M1160 1499 c0 -7 -9 -23 -21 -35 -17 -18 -19 -26 -10 -43 12 -22 1
-58 -22 -73 -15 -9 -56 12 -62 34 -9 26 -20 23 -45 -12 -19 -27 -19 -29 -3
-23 14 5 12 -1 -8 -23 -38 -43 -72 -94 -66 -101 3 -3 50 9 104 26 159 49 202
100 168 201 -16 48 -35 75 -35 49z"/>
<path d="M168 1453 c6 -2 18 -2 25 0 6 3 1 5 -13 5 -14 0 -19 -2 -12 -5z"/>
<path d="M4935 1427 c-44 -19 -113 -53 -154 -76 l-73 -43 25 -26 c36 -38 42
-73 21 -117 -18 -39 -39 -54 -55 -38 -7 7 -1 16 15 27 18 11 26 25 26 46 0 36
-25 52 -89 54 -40 1 -56 -6 -124 -52 -43 -28 -89 -55 -102 -58 -22 -5 -22 -7
-9 -52 8 -26 19 -63 24 -83 9 -32 13 -35 40 -31 25 4 29 8 24 26 -8 32 45 91
74 82 20 -7 22 -4 22 33 0 28 8 48 26 70 33 40 63 56 76 43 7 -7 -1 -22 -26
-46 -39 -40 -48 -84 -21 -106 8 -7 15 -19 15 -26 0 -19 -34 -18 -50 1 -24 28
-27 15 -11 -39 20 -68 45 -80 79 -36 16 21 32 30 52 30 16 0 32 5 36 11 4 8
-1 9 -16 4 -30 -10 -22 16 11 32 13 7 20 13 15 13 -5 0 -1 9 9 20 10 11 24 20
32 20 16 0 16 10 3 44 -13 36 16 36 32 1 9 -21 8 -32 -6 -61 -9 -20 -26 -38
-36 -41 -28 -7 -25 -23 4 -23 14 0 28 -5 31 -11 11 -17 -2 -21 -26 -8 -22 11
-22 10 4 -20 38 -46 38 -103 -2 -140 -29 -27 -30 -29 -21 -97 l8 -69 -1 62
c-2 67 7 73 23 15 27 -100 0 -334 -57 -470 -7 -18 124 31 152 58 13 12 30 36
39 53 14 29 13 33 -3 52 -50 54 -67 161 -37 230 9 22 10 35 2 48 -8 13 -8 20
4 27 8 5 18 6 22 3 5 -2 24 7 42 21 19 14 52 31 75 38 l41 13 0 97 c0 54 -4
98 -8 98 -21 0 -41 -39 -47 -92 -5 -39 -12 -58 -21 -58 -8 0 -14 5 -14 10 0 6
-5 10 -11 10 -5 0 -8 -4 -5 -9 3 -5 -5 -11 -19 -13 -47 -9 -75 50 -75 160 0
70 -7 87 -56 149 -42 51 -42 66 -5 92 47 34 85 37 103 9 24 -35 136 -148 148
-148 25 0 4 31 -70 105 -85 85 -100 118 -57 134 29 11 64 -3 105 -42 l32 -31
0 71 c0 55 -3 72 -16 77 -35 13 -93 4 -169 -27z m67 -595 c16 -19 3 -25 -37
-18 -37 7 -51 25 -41 52 5 13 9 13 37 -3 17 -10 35 -24 41 -31z m-55 -438 c3
-8 -2 -23 -11 -32 -14 -15 -18 -15 -26 -3 -10 16 4 51 21 51 5 0 12 -7 16 -16z"/>
<path d="M308 1394 c-196 -68 -227 -301 -56 -416 50 -34 63 -35 46 -5 -7 12
-20 51 -29 87 -12 45 -18 56 -18 35 -1 -40 -20 -20 -32 34 -10 47 -2 102 12
79 6 -9 9 -6 9 10 0 32 52 82 85 82 42 0 85 -50 85 -98 0 -58 -49 -94 -90 -65
-21 15 -22 15 -15 -8 9 -32 49 -93 98 -151 36 -43 41 -46 63 -36 23 11 23 12
7 21 -37 20 -72 87 -45 87 17 0 42 60 42 102 0 50 -26 99 -67 125 -47 30 -55
40 -37 47 31 12 126 6 157 -10 18 -9 47 -30 65 -47 37 -36 40 -31 12 23 -19
37 -59 74 -107 99 -39 20 -134 22 -185 5z"/>
<path d="M2009 1357 c32 -19 71 -85 71 -120 0 -45 -25 -44 -76 3 -85 79 -148
90 -200 35 -35 -38 -50 -88 -40 -131 11 -42 59 -84 97 -84 l32 0 -27 21 c-35
28 -36 71 -1 87 38 18 69 15 99 -9 15 -12 30 -19 33 -15 12 11 -21 68 -54 93
-29 22 -41 25 -88 21 -43 -4 -52 -2 -44 8 14 17 63 27 98 19 39 -8 99 -70 112
-115 15 -48 -6 -91 -60 -121 -37 -20 -38 -23 -29 -51 30 -87 -93 -142 -158
-71 l-23 25 9 -30 c18 -63 81 -112 145 -112 14 0 25 -6 25 -12 0 -19 52 93 56
120 7 56 70 73 100 28 23 -36 1 -80 -42 -84 -30 -3 -32 -5 -36 -55 -6 -68 -36
-131 -65 -135 -12 -2 -47 11 -78 29 -74 42 -134 44 -172 7 -20 -20 -24 -32
-19 -54 9 -40 70 -121 109 -144 49 -30 52 -24 12 22 -29 34 -35 50 -33 78 3
31 6 35 35 38 19 2 50 -7 82 -24 32 -16 61 -24 76 -22 14 3 25 1 25 -5 0 -6
10 -1 23 11 13 12 27 22 33 22 5 0 17 21 27 48 24 61 46 102 68 127 9 11 20
37 24 58 8 42 26 48 51 14 l17 -22 29 27 c36 34 76 42 181 36 99 -5 169 -33
190 -75 8 -15 18 -52 22 -81 6 -43 10 -51 21 -42 16 14 46 6 69 -20 38 -41
-15 -111 -69 -90 -14 5 -31 20 -37 34 -7 14 -18 22 -28 20 -10 -3 -24 9 -39
33 -25 40 -67 78 -98 90 -11 4 -5 -6 13 -21 62 -52 64 -135 6 -186 -43 -38
-115 -42 -157 -9 -30 23 -34 15 -10 -20 39 -55 152 -77 212 -41 l32 20 0 -21
c0 -42 -123 -65 -194 -35 -39 16 -73 61 -92 119 -8 28 -13 34 -13 20 -1 -29
-24 -30 -58 -3 -40 31 -48 23 -15 -15 100 -113 0 -376 -150 -392 -36 -4 -51 1
-95 29 -64 41 -243 160 -301 200 l-44 31 34 -46 c18 -25 53 -82 78 -128 45
-82 102 -139 140 -139 10 0 50 -34 89 -75 42 -45 79 -75 91 -75 27 0 25 14 -4
29 -13 7 -29 23 -36 35 -6 13 -25 30 -41 40 -16 9 -29 21 -29 27 0 5 -5 9 -10
9 -20 0 -72 45 -87 75 -15 29 -15 30 3 14 11 -9 30 -20 44 -24 14 -4 36 -15
50 -25 57 -40 126 -68 153 -63 33 7 57 -12 57 -44 0 -28 -25 -41 -50 -25 -25
15 -32 4 -13 -24 13 -21 23 -24 79 -24 50 0 64 3 64 15 0 20 17 19 29 -2 5
-10 12 -15 16 -11 4 3 -16 41 -44 84 -49 74 -57 104 -28 104 7 0 42 -43 76
-95 51 -76 69 -95 88 -95 23 0 23 0 -13 57 -20 32 -47 69 -60 84 -29 31 -31
77 -5 110 17 23 21 37 37 131 5 27 12 38 24 38 21 0 53 -34 43 -45 -5 -4 -2
-5 5 -1 7 5 17 18 22 31 6 17 19 24 54 28 71 10 141 -8 225 -59 58 -35 70 -40
52 -21 l-24 26 57 27 c31 14 59 30 62 35 3 5 13 2 21 -7 15 -15 19 -11 50 50
18 36 32 73 30 83 -3 28 17 29 32 2 13 -23 11 -33 -27 -116 -23 -49 -42 -97
-42 -106 0 -8 14 -49 30 -91 20 -50 31 -96 33 -137 2 -63 2 -63 36 -70 18 -4
46 -16 62 -28 20 -15 43 -21 81 -21 49 0 51 1 35 17 -12 12 -20 14 -28 6 -13
-13 -65 10 -77 35 -17 34 -8 47 31 48 20 0 43 6 49 12 19 19 56 14 69 -9 11
-21 9 -58 -6 -91 -6 -16 -1 -18 39 -18 25 0 46 2 46 6 0 3 -9 25 -20 49 -21
47 -18 75 9 75 22 0 53 -34 81 -88 12 -24 24 -41 27 -38 3 3 -28 72 -70 154
-84 163 -132 298 -148 412 -18 128 -10 116 -86 123 -38 3 -77 9 -88 13 -11 4
11 -29 51 -77 73 -86 144 -185 144 -199 0 -4 -6 -10 -14 -13 -14 -6 -67 46
-180 176 -50 57 -58 71 -53 96 6 27 1 32 -76 79 -45 29 -140 103 -212 167 -71
63 -134 113 -140 111 -5 -3 -62 -27 -125 -55 -141 -62 -192 -67 -242 -22 l-33
29 -6 134 c-4 94 -11 144 -23 172 -23 51 0 44 28 -10 16 -29 22 -66 27 -144 3
-58 9 -113 13 -122 7 -16 64 -48 85 -48 7 0 3 9 -7 21 -22 22 -32 69 -32 144
0 72 10 84 52 63 61 -31 183 -141 173 -157 -3 -6 6 -6 25 0 16 6 32 15 35 19
6 9 -216 192 -289 238 -44 28 -87 42 -176 57 -34 6 -34 5 -11 -8z m737 -585
c30 -27 84 -66 119 -87 69 -40 91 -60 77 -69 -11 -7 -97 39 -158 84 -25 19
-60 43 -77 52 -42 23 -51 34 -44 52 10 25 25 19 83 -32z m-134 -217 l-5 -45
35 0 c20 0 41 7 48 15 25 31 80 5 66 -31 -4 -12 -13 -14 -31 -10 -16 4 -34 1
-48 -9 -64 -45 -118 17 -87 99 15 41 28 30 22 -19z m261 16 c18 -18 2 -45 -30
-52 -48 -10 -70 22 -38 55 16 15 51 14 68 -3z m227 -163 c56 -60 -21 -144 -84
-90 -19 15 -19 15 -7 0 7 -9 10 -21 8 -26 -3 -4 -2 -14 3 -22 7 -11 11 -11 23
-1 9 7 21 11 29 9 7 -2 28 8 46 20 18 13 39 21 47 18 14 -5 61 -86 50 -86 -3
0 -7 0 -10 0 -3 0 -27 -11 -55 -25 -77 -39 -119 -31 -121 25 0 21 -2 22 -8 7
-6 -16 -9 -17 -19 -5 -24 30 -14 164 14 185 27 19 61 16 84 -9z"/>
<path d="M3027 394 c-14 -14 -7 -53 12 -63 26 -14 54 8 49 40 -2 17 -10 25
-28 27 -14 2 -29 0 -33 -4z"/>
<path d="M1566 1294 c-90 -92 -99 -301 -21 -461 18 -37 44 -81 57 -96 l23 -28
24 33 c20 27 21 30 4 15 -20 -18 -21 -17 -46 45 -41 103 -52 176 -37 255 15
77 31 108 62 116 23 7 73 -15 85 -37 5 -8 8 14 9 53 0 51 6 78 22 105 l22 37
-39 -22 c-21 -12 -45 -32 -51 -45 -16 -28 -26 -24 -33 15 -4 17 -15 35 -26 41
-17 8 -25 4 -55 -26z"/>
<path d="M1202 1257 c-6 -7 -59 -38 -119 -70 -59 -31 -121 -67 -136 -80 l-28
-22 60 -1 c32 -1 79 -9 103 -19 23 -10 61 -18 83 -19 l40 -2 -3 98 c-3 67 0
103 8 113 7 8 10 15 7 15 -2 0 -9 -6 -15 -13z"/>
<path d="M3501 1247 c-13 -21 -12 -21 5 -5 10 10 16 20 13 22 -3 3 -11 -5 -18
-17z"/>
<path d="M4452 1235 c4 -5 3 -14 -4 -22 -15 -19 -7 -23 19 -9 l23 11 -23 14
c-12 8 -19 10 -15 6z"/>
<path d="M3535 1174 c-16 -8 -38 -23 -49 -32 -27 -25 -58 -92 -51 -110 5 -13
8 -14 14 -3 7 11 10 10 15 -5 6 -20 9 -22 89 -68 l47 -28 0 41 c0 38 -2 41
-19 32 -10 -6 -21 -7 -25 -4 -12 12 -6 51 9 63 17 14 17 14 33 -15 10 -17 12
-14 14 25 3 73 0 94 -19 107 -21 16 -22 16 -58 -3z"/>
<path d="M2773 1157 c-23 -7 -45 -16 -49 -20 -5 -4 52 -68 125 -141 138 -138
152 -164 101 -176 -20 -5 -7 -13 78 -49 56 -24 107 -51 112 -60 5 -9 10 -12
10 -8 0 19 -68 141 -130 228 -37 52 -86 128 -110 167 -47 79 -53 82 -137 59z
m148 -149 c6 -16 15 -28 18 -28 4 0 18 -14 30 -31 l23 -31 -31 23 c-17 12 -31
26 -31 30 0 4 -9 10 -19 14 -22 7 -62 65 -55 77 8 13 52 -24 65 -54z"/>
<path d="M2930 1153 c0 -16 55 -97 156 -230 53 -70 99 -134 101 -140 10 -25
21 -12 33 36 10 44 9 56 -15 126 -29 87 -29 113 1 69 28 -39 54 -108 54 -142
0 -23 4 -20 24 23 12 28 30 56 39 64 10 7 17 17 17 21 0 18 -167 115 -242 140
-93 32 -168 46 -168 33z m227 -149 c38 -24 65 -154 33 -154 -8 0 -73 82 -105
132 -9 15 -14 32 -10 38 8 14 50 5 82 -16z"/>
<path d="M800 1115 c-7 -9 -8 -15 -2 -15 5 0 12 7 16 15 3 8 4 15 2 15 -2 0
-9 -7 -16 -15z"/>
<path d="M4296 1095 c-14 -11 -34 -13 -72 -9 -46 6 -53 4 -63 -14 -6 -11 -11
-46 -11 -76 0 -51 2 -56 23 -56 29 0 43 10 51 38 6 19 14 22 62 22 40 0 54 -4
54 -14 0 -8 -6 -17 -12 -19 -7 -3 -3 -6 10 -6 33 -1 36 21 15 86 -21 63 -29
69 -57 48z"/>
<path d="M1740 1074 c0 -34 12 -63 23 -58 7 2 22 -12 35 -32 18 -28 28 -35 50
-32 19 2 28 10 30 26 3 18 -5 26 -43 42 -25 11 -57 32 -70 46 -22 23 -25 24
-25 8z"/>
<path d="M719 1050 c-65 -6 -67 -7 -129 -71 -34 -35 -59 -58 -56 -52 5 9 2 11
-8 7 -9 -3 -14 -9 -12 -13 3 -4 -3 -7 -12 -8 -9 -1 -46 -9 -82 -18 -62 -16
-111 -16 -195 1 l-30 6 32 -20 c34 -22 92 -115 143 -229 18 -40 36 -73 39 -73
4 0 36 30 71 67 43 45 47 51 14 20 -57 -54 -61 -53 -89 23 -31 84 -31 87 9
104 19 8 57 18 83 22 66 9 106 27 144 63 32 31 53 35 29 6 -7 -8 -10 -15 -7
-15 4 0 24 26 45 58 44 65 85 133 80 131 -2 -1 -33 -5 -69 -9z"/>
<path d="M852 1026 c-15 -17 -35 -40 -43 -50 -12 -18 -12 -19 1 -12 8 5 3 -3
-11 -17 -15 -14 -64 -74 -110 -134 -45 -59 -126 -151 -178 -204 l-96 -96 18
-58 c28 -94 39 -184 28 -240 -5 -27 -8 -51 -7 -52 1 -2 25 13 52 32 27 19 44
35 38 35 -6 0 -14 24 -18 53 -19 162 -19 166 -4 172 8 3 56 -12 106 -33 88
-38 121 -41 109 -9 -10 27 -71 64 -124 77 -59 13 -89 32 -79 49 7 11 18 10 99
-10 42 -11 104 -68 119 -110 5 -16 13 -29 17 -29 4 0 24 17 44 38 l37 38 -37
25 c-112 72 -110 229 3 314 47 35 96 74 77 61 -31 -20 -20 3 18 40 34 32 39
35 30 14 -10 -21 -10 -22 1 -6 26 38 48 56 72 56 28 0 56 -24 56 -48 0 -27
-91 -105 -170 -146 -89 -46 -127 -79 -135 -117 -8 -33 14 -79 51 -108 35 -27
49 -27 30 1 -36 51 -3 97 103 145 42 19 84 42 93 50 10 8 24 13 32 10 10 -4
27 14 54 56 22 34 43 71 46 82 17 59 -98 138 -222 153 -72 8 -72 8 -100 -22z
m-139 -410 c3 -7 8 -34 12 -59 l7 -45 -34 7 c-46 11 -78 29 -78 45 0 17 56 66
75 66 7 0 15 -6 18 -14z"/>
<path d="M0 1000 c0 -28 4 -40 15 -40 25 0 66 -23 61 -35 -3 -8 9 -8 45 -1
l48 10 -79 53 c-44 29 -82 53 -85 53 -3 0 -5 -18 -5 -40z"/>
<path d="M4578 973 c6 -2 18 -2 25 0 6 3 1 5 -13 5 -14 0 -19 -2 -12 -5z"/>
<path d="M5011 944 c0 -11 3 -14 6 -6 3 7 2 16 -1 19 -3 4 -6 -2 -5 -13z"/>
<path d="M3460 924 c0 -13 11 -52 25 -85 13 -33 29 -85 34 -115 6 -31 13 -60
17 -66 3 -5 -3 -23 -15 -39 l-22 -29 25 -33 c14 -18 29 -45 35 -60 6 -16 15
-26 20 -23 9 6 71 -144 71 -172 0 -10 -9 -34 -20 -54 l-19 -36 80 -107 c44
-58 85 -105 91 -103 6 2 18 14 26 26 13 20 13 22 -1 16 -11 -4 -24 7 -43 38
-23 35 -29 60 -36 139 -4 53 -12 109 -18 124 -15 39 -6 42 26 9 50 -53 98
-138 105 -184 l6 -45 1 50 c2 64 -19 110 -106 232 -91 128 -128 195 -147 268
-17 66 -20 157 -6 183 7 14 -3 23 -60 54 l-69 37 0 -25z"/>
<path d="M4437 934 c14 -3 26 -16 30 -32 13 -43 9 -170 -4 -183 -10 -10 -2
-20 33 -48 47 -36 86 -101 97 -159 16 -83 -35 -182 -114 -223 -71 -36 -185
-22 -243 29 -31 28 -76 94 -70 103 3 5 -2 9 -11 9 -14 0 -14 -3 1 -32 26 -51
64 -93 129 -144 93 -71 108 -77 168 -65 93 20 232 64 247 79 8 8 9 12 2 8 -7
-4 -26 -12 -43 -16 -27 -8 -29 -7 -18 6 7 8 14 56 17 113 4 91 3 102 -23 159
-15 34 -31 62 -35 62 -19 0 -50 81 -49 131 2 84 10 104 45 107 25 2 41 -6 82
-43 29 -26 49 -39 45 -29 -4 11 -3 15 5 10 21 -13 24 33 3 60 -53 67 -115 94
-230 99 -47 2 -76 2 -64 -1z"/>
<path d="M4730 930 c-13 -8 -10 -15 17 -41 27 -28 34 -30 47 -19 9 7 16 18 16
25 0 27 -55 51 -80 35z"/>
<path d="M3347 919 c-48 -28 -64 -121 -48 -273 24 -217 79 -367 186 -507 54
-69 152 -139 196 -139 17 0 -133 179 -172 205 -64 42 -96 123 -75 186 8 21 10
36 5 34 -11 -7 -26 22 -34 67 -7 35 -6 36 17 31 33 -8 48 -22 48 -44 0 -16 5
-18 28 -13 15 4 29 8 31 10 2 2 -7 25 -20 51 -19 38 -30 49 -51 51 -32 4 -68
45 -68 77 0 29 40 65 73 65 33 0 33 8 6 96 -31 101 -69 133 -122 103z m73
-119 c13 -25 5 -40 -21 -40 -22 0 -34 22 -25 45 8 21 33 19 46 -5z"/>
<path d="M4290 914 c-36 -7 -82 -13 -102 -14 -42 0 -43 -2 -26 -64 l11 -43 41
18 c23 10 60 19 84 19 27 0 45 5 48 14 3 7 20 22 39 32 28 15 32 21 24 36 -11
21 -28 21 -119 2z"/>
<path d="M2295 881 c-39 -17 -58 -50 -63 -106 -5 -60 3 -105 19 -105 6 0 8 4
5 9 -10 16 35 87 65 105 64 38 279 14 293 -32 2 -9 2 1 -1 23 -9 61 -19 73
-76 90 -60 19 -213 29 -242 16z"/>
<path d="M136 860 c-26 -8 -106 -58 -106 -66 0 -2 18 -16 40 -30 56 -37 93
-115 88 -187 l-3 -54 44 14 c24 7 56 14 70 14 24 2 25 2 3 6 -14 3 -27 16 -33
31 -5 15 -26 58 -45 96 -28 54 -32 71 -22 77 17 11 35 11 57 -1 28 -15 104
-138 105 -170 1 -30 10 -38 21 -20 6 9 -100 226 -128 261 -11 14 -51 40 -59
38 -2 0 -16 -5 -32 -9z"/>
<path d="M3660 792 c0 -70 21 -161 54 -235 33 -76 103 -177 123 -177 11 0 13
4 6 13 -17 21 -66 167 -59 174 11 11 38 -10 85 -68 24 -30 59 -63 78 -73 25
-15 33 -27 33 -47 0 -41 -16 -43 -39 -5 -22 35 -61 55 -61 31 0 -7 7 -15 15
-19 8 -3 15 -15 15 -26 0 -16 -6 -20 -34 -20 l-34 0 36 -64 c26 -44 42 -62 52
-58 12 4 12 2 -1 -14 -9 -10 -20 -44 -24 -74 -4 -30 -16 -72 -26 -93 l-19 -37
98 1 98 2 -27 103 c-27 102 -38 205 -26 254 3 14 11 52 17 85 7 33 15 67 18
75 5 12 1 12 -21 -3 -32 -21 -75 -22 -103 -3 -25 18 -188 203 -220 250 -28 40
-32 72 -9 59 8 -5 57 -57 109 -117 120 -138 147 -158 187 -142 27 10 33 8 46
-9 14 -19 15 -16 11 37 -8 101 -68 150 -275 222 l-103 35 0 -57z m301 -132
c48 -25 58 -45 33 -68 -30 -29 -71 -16 -95 30 -31 61 -10 74 62 38z"/>
<path d="M4429 812 c-3 -20 -2 -29 4 -23 5 5 7 19 5 32 -3 20 -5 19 -9 -9z"/>
<path d="M3241 772 c-31 -127 14 -303 146 -574 l97 -198 36 0 37 0 -36 38
c-90 94 -181 265 -216 407 -14 55 -31 163 -38 240 l-13 140 -13 -53z"/>
<path d="M4626 765 c8 -36 40 -101 53 -109 24 -15 16 14 -21 74 -28 47 -37 56
-32 35z"/>
<path d="M1859 755 c34 -20 46 -23 52 -13 6 9 2 14 -14 16 -12 2 -26 8 -31 13
-6 5 -19 9 -30 9 -15 0 -8 -8 23 -25z"/>
<path d="M2368 734 c-33 -18 -48 -43 -48 -83 0 -62 29 -86 91 -71 19 4 27 8
18 9 -25 2 -32 31 -13 52 21 23 37 24 54 4 10 -12 10 -19 -1 -33 -8 -10 -4 -7
9 6 28 29 28 71 1 106 -24 30 -67 34 -111 10z"/>
<path d="M4203 734 c-25 -13 -33 -24 -38 -57 -10 -57 -8 -112 5 -152 10 -30
14 -33 30 -25 23 12 52 68 39 76 -16 9 -10 43 11 64 14 14 33 20 62 20 l41 0
-19 -22 c-17 -20 -17 -21 -1 -9 10 8 25 27 32 42 13 24 12 28 -4 43 -20 18
-74 36 -106 36 -11 0 -34 -8 -52 -16z"/>
<path d="M5063 730 c-61 -37 -85 -116 -55 -184 27 -60 52 -73 81 -42 18 19 19
25 8 29 -29 11 -30 57 -3 98 17 25 26 52 26 79 0 46 -10 49 -57 20z"/>
<path d="M0 675 c0 -30 4 -55 9 -55 5 0 16 -13 24 -30 14 -28 14 -32 -9 -65
-37 -55 -28 -77 14 -32 24 26 42 69 42 102 0 39 -30 102 -56 120 l-24 15 0
-55z"/>
<path d="M2659 684 c-9 -11 -10 -20 -2 -32 15 -24 44 -27 59 -7 28 38 -27 75
-57 39z"/>
<path d="M3430 675 c-7 -8 -10 -25 -6 -40 5 -20 13 -25 36 -25 36 0 56 30 40
60 -13 24 -52 26 -70 5z"/>
<path d="M4420 631 c0 -14 -172 -161 -213 -183 -18 -9 -27 -17 -22 -17 6 -1
16 3 24 8 10 6 21 0 39 -20 41 -50 114 -79 91 -38 -14 27 2 61 37 80 13 7 24
16 24 20 0 4 16 17 35 29 45 28 72 20 78 -23 4 -31 4 -30 5 6 2 49 -30 112
-68 132 -17 9 -30 11 -30 6z"/>
<path d="M4763 632 c-37 -4 -39 -8 -17 -40 18 -26 31 -21 45 15 11 30 13 29
-28 25z"/>
<path d="M4092 570 c0 -14 2 -19 5 -12 2 6 2 18 0 25 -3 6 -5 1 -5 -13z"/>
<path d="M4700 545 c0 -6 11 -22 25 -35 15 -14 25 -35 26 -54 1 -30 1 -30 9
-6 17 53 11 74 -25 91 -25 12 -35 13 -35 4z"/>
<path d="M265 515 c-33 -8 -75 -14 -92 -14 -18 -1 -33 -5 -33 -11 0 -18 -63
-81 -102 -101 l-38 -19 0 -92 c0 -90 0 -91 20 -73 23 21 27 34 5 15 -13 -10
-15 -9 -15 12 0 31 25 54 69 63 33 7 291 207 291 226 0 12 -32 10 -105 -6z"/>
<path d="M4051 452 c-7 -40 -11 -76 -8 -78 3 -3 15 1 26 8 17 10 20 19 15 38
-4 14 -10 43 -14 65 -6 39 -6 39 -19 -33z"/>
<path d="M325 436 c-33 -28 -76 -63 -95 -77 l-35 -27 22 -23 c27 -30 47 -108
39 -153 -8 -42 -57 -92 -99 -100 -18 -4 -40 -18 -50 -31 l-18 -25 76 0 c73 0
79 2 119 35 24 19 44 43 45 52 6 57 0 105 -17 140 -30 58 -16 74 40 44 24 -13
49 -31 57 -40 11 -14 12 -2 8 79 -3 52 -11 113 -19 136 l-13 41 -60 -51z m55
-71 c18 -21 5 -45 -25 -45 -33 0 -45 28 -20 46 24 18 30 17 45 -1z"/>
<path d="M1848 483 c6 -2 18 -2 25 0 6 3 1 5 -13 5 -14 0 -19 -2 -12 -5z"/>
<path d="M4120 475 c0 -5 5 -17 10 -25 5 -8 10 -10 10 -5 0 6 -5 17 -10 25 -5
8 -10 11 -10 5z"/>
<path d="M3489 421 c-33 -34 -43 -77 -11 -48 10 10 25 17 33 17 18 0 39 19 39
36 0 26 -32 23 -61 -5z"/>
<path d="M2537 360 c62 -35 198 -78 209 -67 10 10 -214 107 -246 107 -34 0
-33 -1 37 -40z"/>
<path d="M5025 366 c-35 -60 -55 -74 -155 -103 -77 -22 -100 -32 -104 -48 -3
-11 -30 -53 -60 -93 l-56 -73 26 -9 c14 -6 33 -14 43 -19 15 -9 18 -6 18 19 0
40 29 70 68 70 41 0 75 -35 75 -78 0 -30 2 -32 35 -32 34 0 34 1 29 33 -4 17
-19 45 -35 60 -16 15 -29 34 -29 42 0 18 40 31 50 15 5 -7 8 -2 8 14 0 61 67
76 106 23 19 -26 19 -30 5 -55 -18 -33 -62 -41 -90 -16 -19 17 -34 13 -34 -9
0 -7 17 -25 38 -41 23 -17 36 -34 33 -43 -3 -8 23 12 59 43 64 57 65 58 65
108 0 51 0 51 -32 51 -30 0 -33 3 -33 30 0 24 5 31 33 39 29 8 32 13 32 45 0
34 -3 38 -39 47 -37 10 -39 9 -56 -20z"/>
<path d="M714 348 l-19 -23 23 19 c21 18 27 26 19 26 -2 0 -12 -10 -23 -22z"/>
<path d="M4066 347 c-28 -23 -29 -24 -23 -103 2 -43 15 -115 28 -159 21 -69
27 -80 48 -83 21 -3 23 -1 18 25 -4 15 -12 58 -18 96 -8 43 -17 67 -25 67 -7
0 -18 9 -24 21 -9 16 -8 26 5 45 22 34 35 30 35 -11 l0 -36 31 16 c40 21 63 5
54 -36 -4 -16 0 -39 8 -54 12 -23 15 -25 26 -11 7 9 31 21 53 26 l39 11 -61
40 c-57 39 -114 98 -139 147 -15 28 -19 27 -55 -1z"/>
<path d="M4378 353 c7 -3 16 -2 19 1 4 3 -2 6 -13 5 -11 0 -14 -3 -6 -6z"/>
<path d="M3517 343 c-11 -11 -8 -48 5 -61 17 -17 57 -15 64 3 4 8 3 26 0 40
-5 19 -13 25 -35 25 -15 0 -31 -3 -34 -7z"/>
<path d="M2079 313 l-24 -28 28 24 c15 14 27 26 27 28 0 8 -8 1 -31 -24z"/>
<path d="M2444 311 c-20 -12 -37 -34 -44 -56 -11 -32 -9 -41 12 -83 28 -54 98
-112 135 -112 25 0 24 2 -15 29 -44 32 -63 81 -42 106 20 24 45 1 80 -70 17
-36 37 -65 44 -65 6 0 27 -13 46 -30 19 -16 46 -29 60 -29 22 0 20 2 -15 21
-22 11 -53 32 -69 47 -41 37 -96 156 -96 207 0 35 -4 43 -22 48 -34 9 -40 8
-74 -13z"/>
<path d="M81 225 c-79 -83 -81 -86 -81 -135 0 -38 5 -55 22 -72 l21 -21 23 27
c22 25 23 56 2 56 -14 0 31 33 65 48 33 14 67 67 67 104 0 29 -19 78 -30 78
-4 0 -44 -38 -89 -85z"/>
<path d="M2580 269 c0 -46 17 -76 57 -103 41 -29 115 -38 79 -11 -18 13 -18
15 -2 21 10 4 29 1 44 -6 l27 -13 -25 -7 c-23 -6 -24 -7 -6 -17 28 -15 10 -33
-33 -33 -24 0 -49 8 -67 22 -21 16 -25 17 -15 5 44 -55 179 -80 235 -43 42 27
35 43 -60 143 -39 41 -44 43 -100 43 -33 1 -76 7 -96 14 l-38 14 0 -29z"/>
<path d="M2830 237 c0 -4 14 -26 30 -49 17 -22 30 -35 30 -27 0 15 -59 90 -60
76z"/>
<path d="M2334 188 c4 -35 24 -83 65 -154 l17 -32 20 22 c19 21 19 21 -19 55
-38 34 -62 71 -79 121 -6 20 -7 18 -4 -12z"/>
<path d="M4550 180 c-97 -26 -102 -28 -70 -35 19 -4 52 -16 73 -27 27 -13 42
-16 51 -9 25 21 77 101 64 100 -7 -1 -60 -14 -118 -29z"/>
<path d="M1502 180 c0 -14 2 -19 5 -12 2 6 2 18 0 25 -3 6 -5 1 -5 -13z"/>
<path d="M1042 160 c0 -14 2 -19 5 -12 2 6 2 18 0 25 -3 6 -5 1 -5 -13z"/>
<path d="M175 117 c-38 -38 -39 -39 -9 -24 34 18 58 42 52 55 -1 4 -21 -10
-43 -31z"/>
<path d="M1050 120 c0 -15 111 -120 126 -120 34 0 -6 55 -72 100 -49 33 -54
35 -54 20z"/>
<path d="M1331 114 c0 -11 3 -14 6 -6 3 7 2 16 -1 19 -3 4 -6 -2 -5 -13z"/>
<path d="M4260 102 c-31 -15 -35 -22 -38 -59 -3 -43 -3 -43 31 -43 21 0 41 7
52 20 23 26 56 25 134 -1 l63 -22 25 25 24 25 -23 15 c-44 28 -139 58 -186 58
-26 0 -63 -8 -82 -18z"/>
<path d="M1860 61 c5 -11 10 -29 10 -40 0 -18 6 -21 43 -21 l42 1 -45 39 c-49
44 -66 51 -50 21z"/>
<path d="M4776 64 c-4 -9 -5 -17 -4 -18 2 -1 18 -12 36 -25 41 -28 61 -17 46
26 -11 34 -67 46 -78 17z"/>
<path d="M5080 35 l-34 -35 37 0 c36 0 37 1 37 35 0 19 -1 35 -3 35 -2 0 -18
-16 -37 -35z"/>
<path d="M2465 10 c-4 -6 14 -10 47 -9 42 1 48 3 28 9 -36 12 -68 12 -75 0z"/>
<path d="M2903 3 c9 -2 25 -2 35 0 9 3 1 5 -18 5 -19 0 -27 -2 -17 -5z"/>
</g>
</svg>